<svg xmlns="http://www.w3.org/2000/svg" width="80" height="80" fill="none" viewBox="0 0 80 80">
  <path stroke="#333" stroke-linecap="round" stroke-linejoin="round" stroke-width="6.667" d="M44.667 6.667H20a6.667 6.667 0 0 0-6.667 6.666v53.334A6.667 6.667 0 0 0 20 73.333h40a6.666 6.666 0 0 0 6.667-6.666V42m-60-22H20M6.667 33.333H20M6.667 46.667H20M6.667 60H20"/>
  <path fill="#333" stroke="#333" stroke-linecap="round" stroke-linejoin="round" stroke-width="6.667" d="M71.26 18.753A7.08 7.08 0 0 0 61.247 8.74l-16.7 16.707a6.666 6.666 0 0 0-1.687 2.846l-2.79 9.567a1.667 1.667 0 0 0 2.067 2.067l9.566-2.79a6.668 6.668 0 0 0 2.847-1.687l16.71-16.697Z"/>
</svg>
