<svg xmlns="http://www.w3.org/2000/svg" width="80" height="80" fill="none" viewBox="0 0 80 80">
  <g clip-path="url(#a)">
    <mask id="b" width="80" height="80" x="0" y="0" maskUnits="userSpaceOnUse" style="mask-type:luminance">
      <path fill="#fff" d="M0 0h80v80H0V0Z"/>
    </mask>
    <g mask="url(#b)">
      <mask id="c" width="80" height="80" x="0" y="0" maskUnits="userSpaceOnUse" style="mask-type:luminance">
        <path fill="#fff" d="M0 0h80v80H0V0Z"/>
      </mask>
      <g mask="url(#c)">
        <mask id="d" width="80" height="80" x="0" y="0" maskUnits="userSpaceOnUse" style="mask-type:alpha">
          <path fill="#D9D9D9" d="M80 40c0 22.091-17.909 40-40 40S0 62.091 0 40 17.909 0 40 0s40 17.909 40 40Z"/>
        </mask>
        <g mask="url(#d)">
          <path fill="url(#e)" d="M61.25 0h-42.5C8.395 0 0 8.395 0 18.75v42.5C0 71.605 8.395 80 18.75 80h42.5C71.605 80 80 71.605 80 61.25v-42.5C80 8.395 71.605 0 61.25 0Z"/>
          <path fill="url(#f)" d="M61.25 0h-42.5C8.395 0 0 8.395 0 18.75v42.5C0 71.605 8.395 80 18.75 80h42.5C71.605 80 80 71.605 80 61.25v-42.5C80 8.395 71.605 0 61.25 0Z"/>
          <path fill="#fff" d="M40.002 16c-6.518 0-7.336.029-9.896.145-2.555.117-4.299.521-5.825 1.115-1.578.613-2.918 1.433-4.251 2.767-1.335 1.335-2.156 2.674-2.77 4.252-.596 1.526-1 3.27-1.116 5.825C16.03 32.664 16 33.482 16 40c0 6.518.029 7.334.145 9.894.118 2.555.522 4.299 1.115 5.825.613 1.578 1.433 2.917 2.768 4.251 1.334 1.336 2.673 2.157 4.25 2.77 1.527.594 3.271.998 5.826 1.115 2.56.117 3.378.146 9.895.146 6.519 0 7.334-.03 9.894-.146 2.555-.117 4.301-.521 5.828-1.114 1.578-.614 2.916-1.435 4.249-2.77 1.335-1.334 2.155-2.673 2.77-4.252.59-1.526.995-3.27 1.115-5.825.115-2.56.145-3.376.145-9.894 0-6.518-.03-7.336-.145-9.896-.12-2.555-.525-4.299-1.115-5.825-.615-1.578-1.435-2.917-2.77-4.252-1.335-1.334-2.67-2.155-4.25-2.767-1.53-.594-3.275-.998-5.83-1.115-2.56-.116-3.375-.145-9.895-.145h.007Zm-2.153 4.325h2.153c6.408 0 7.168.023 9.698.138 2.34.107 3.61.498 4.456.827 1.12.434 1.919.955 2.758 1.795.84.84 1.36 1.64 1.796 2.76.329.845.72 2.115.827 4.455.115 2.53.14 3.29.14 9.695s-.025 7.165-.14 9.695c-.107 2.34-.498 3.61-.827 4.455-.434 1.12-.956 1.917-1.796 2.757-.84.84-1.637 1.36-2.758 1.795-.845.33-2.116.72-4.456.827-2.53.115-3.29.14-9.698.14s-7.168-.025-9.698-.14c-2.34-.108-3.61-.499-4.457-.828-1.12-.435-1.92-.954-2.76-1.794-.84-.84-1.36-1.639-1.796-2.759-.328-.845-.72-2.115-.826-4.455-.115-2.53-.138-3.29-.138-9.7 0-6.408.023-7.164.138-9.694.107-2.34.498-3.61.826-4.456.436-1.12.956-1.92 1.797-2.76.84-.84 1.64-1.36 2.76-1.796.846-.33 2.116-.72 4.456-.828 2.214-.1 3.072-.13 7.545-.135v.006Zm14.964 3.985a2.881 2.881 0 1 0 0 5.762 2.881 2.881 0 0 0 0-5.762Zm-12.81 3.365c-6.807 0-12.326 5.519-12.326 12.325 0 6.807 5.519 12.323 12.325 12.323 6.807 0 12.323-5.516 12.323-12.323 0-6.806-5.516-12.325-12.322-12.325Zm0 4.325a7.999 7.999 0 1 1 0 15.998 7.999 7.999 0 0 1 0-15.998Z"/>
        </g>
      </g>
    </g>
  </g>
  <defs>
    <radialGradient id="e" cx="0" cy="0" r="1" gradientTransform="matrix(0 -79.2859 73.7422 0 21.25 86.162)" gradientUnits="userSpaceOnUse">
      <stop stop-color="#FD5"/>
      <stop offset=".1" stop-color="#FD5"/>
      <stop offset=".5" stop-color="#FF543E"/>
      <stop offset="1" stop-color="#C837AB"/>
    </radialGradient>
    <radialGradient id="f" cx="0" cy="0" r="1" gradientTransform="matrix(6.95611 34.75195 -143.2485 28.67328 -13.4 5.763)" gradientUnits="userSpaceOnUse">
      <stop stop-color="#3771C8"/>
      <stop offset=".128" stop-color="#3771C8"/>
      <stop offset="1" stop-color="#60F" stop-opacity="0"/>
    </radialGradient>
    <clipPath id="a">
      <path fill="#fff" d="M0 0h80v80H0z"/>
    </clipPath>
  </defs>
</svg>
