<svg xmlns="http://www.w3.org/2000/svg" width="80" height="80" fill="none" viewBox="0 0 80 80">
  <path fill="#333" d="M18.02 8h-.052a2 2 0 0 0-.704.144 2 2 0 0 0-1.24 1.552C15.96 10.072 14 22.38 14 28c0 3.8 1.768 7.188 4.52 9.38 1 .804 1.48 1.676 1.48 2.404v2c0 .072-.004.144-.012.216-.108 1.04-.604 5.716-1.072 10.524-.46 4.74-.916 9.8-.916 11.476a8 8 0 0 0 16 0c0-1.68-.456-6.736-.916-11.476-.342-3.508-.7-7.015-1.072-10.52l-.012-.22v-2c0-.732.48-1.6 1.48-2.404A12.001 12.001 0 0 0 38 28c0-5.632-1.972-17.996-2.024-18.308A2 2 0 0 0 34.04 8h-.08.004a2.02 2.02 0 0 0-2.004 2.02v16a1.98 1.98 0 1 1-3.96.084V10a2 2 0 1 0-4 0v16l.004.128a1.981 1.981 0 0 1-3.96-.108V10.024A2.024 2.024 0 0 0 18.02 8ZM44 26A18 18 0 0 1 62 8a2 2 0 0 1 2 2v27.912l.08.896c.312 3.594.616 7.189.912 10.784C65.488 55.62 66 62.236 66 64a8 8 0 0 1-16 0c0-1.76.512-8.38 1.008-14.408.248-3.044.5-5.988.688-8.168l.12-1.424H50a6 6 0 0 1-6-6v-8Z"/>
</svg>
