<svg xmlns="http://www.w3.org/2000/svg" width="80" height="80" fill="none" viewBox="0 0 80 80">
  <g clip-path="url(#a)">
    <path fill="#000" d="M80 40C80 17.909 62.091 0 40 0S0 17.909 0 40s17.909 40 40 40 40-17.909 40-40Z"/>
    <path fill="#fff" d="m44.566 36.244 17.87-20.771H58.2L42.685 33.508 30.293 15.473H16l18.74 27.272L16 64.527h4.235L36.62 45.481l13.087 19.046H64L44.566 36.244Zm-5.8 6.742-1.898-2.716L21.76 18.66h6.505L40.456 36.1l1.9 2.716 15.847 22.669H51.7L38.767 42.987l-.001-.001Z"/>
  </g>
  <defs>
    <clipPath id="a">
      <path fill="#fff" d="M0 0h80v80H0z"/>
    </clipPath>
  </defs>
</svg>
