<svg xmlns="http://www.w3.org/2000/svg" width="272" height="160" fill="none" viewBox="0 0 272 160">
  <path fill="#4B9B4B" d="M249.613 21.11c-36.29 6.563-45.664 30.89-54.8 51.222l7.449 2.939 4.163-9.042c1.892.756 3.869 1.355 5.308 1.412 43.965 1.75 58.659-65.72 58.659-65.72-4.314 7.835-32.332 7.721-52.475 10.923-20.144 3.202-28.813 19.87-29.131 27.864-.318 7.994 6.398 15.266 6.398 15.266 14.461-36.454 54.429-34.863 54.429-34.863Z"/>
  <path fill="#78593A" d="M258.354 139.52c.426.267.693.72.8 1.36.053.8-.16 1.707-.64 2.72-.48.96-1.067 1.813-1.76 2.56-1.707 1.92-3.814 3.413-6.32 4.48-2.454 1.067-5.12 1.6-8 1.6h-1.04c-2.774-.267-5.254-1.093-7.44-2.48-2.027-1.387-3.76-3.253-5.2-5.6-1.6-2.773-2.48-5.84-2.64-9.2a5.943 5.943 0 0 1-.32-2.4c.106-2.453.586-4.747 1.44-6.88l.08-.32.32-.64c.96-2.027 2.266-3.893 3.92-5.6.8-.853 1.76-1.707 2.88-2.56 1.013-.747 2.32-1.333 3.92-1.76a14.57 14.57 0 0 1 5.6-1.12l.64.08c1.866.053 3.573.373 5.12.96a12.96 12.96 0 0 1 4.64 3.12c1.76 1.813 2.72 4.027 2.88 6.64.213 2.56-.614 4.987-2.48 7.28-1.494 1.6-3.654 2.8-6.48 3.6-2.027.533-4.347.8-6.96.8l-1.28.08c-3.52 0-6.134-.32-7.84-.96.106.533.213 1.12.32 1.76.16 1.067.506 2.24 1.04 3.52.586 1.28 1.173 2.16 1.76 2.64 1.44 1.44 3.253 2.373 5.44 2.8.906.053 1.626.08 2.16.08 1.813 0 3.653-.293 5.52-.88.746-.267 1.573-.8 2.48-1.6.96-.8 1.706-1.6 2.24-2.4 1.173-1.547 2.32-2.32 3.44-2.32.586 0 1.173.213 1.76.64Zm-25.28-12.32c-.267.747-.454 1.387-.56 1.92h.08c.48 0 1.2.133 2.16.4 1.546.48 3.173.72 4.88.72h.64a42.595 42.595 0 0 0 5.44-.72c1.493-.373 2.506-.72 3.04-1.04 1.12-.533 1.786-1.12 2-1.76.16-.427.32-.933.48-1.52.053-.64.026-1.093-.08-1.36-.374-1.387-1.414-2.427-3.12-3.12-1.494-.64-2.934-.96-4.32-.96-.427 0-.854.053-1.28.16-.16.053-.534.187-1.12.4-.48.16-.774.24-.88.24a17.71 17.71 0 0 0-4.08 2.24l-.56.56c-1.12 1.067-2.027 2.347-2.72 3.84Zm-3.496-30.72c.586.693.8 1.627.64 2.8-.16 1.387-1.28 2.133-3.36 2.24-2.667.107-4.427.667-5.28 1.68-.32.373-.614.96-.88 1.76-.267.96-.427 1.947-.48 2.96-.107.96-.214 2.267-.32 3.92h.24c.266 0 .586.053.96.16.373.107.613.16.72.16.213 0 .56-.027 1.04-.08.693-.107 1.226-.16 1.6-.16.586 0 1.173.08 1.76.24h.48c.266-.053.48-.08.64-.08h.32c.906.213 1.28 1.44 1.12 3.68-.107 1.707-.56 2.56-1.36 2.56h-.16l-.24-.08c-.267-.107-.48-.16-.64-.16-.107 0-.267.027-.48.08a9.101 9.101 0 0 0-.88.16c-.214 0-.454-.027-.72-.08a2.464 2.464 0 0 0-.4-.08.893.893 0 0 0-.4.08h-.16c-.16 0-.4-.053-.72-.16h-.72c-.374.053-.64.08-.8.08-.267 0-.56-.053-.88-.16a1.33 1.33 0 0 0-.32-.08l-.08 2.4c.053.8.106 1.36.16 1.68.053.533 0 1.227-.16 2.08.106 1.12.133 2.053.08 2.8 0 .32-.054.987-.16 2-.16 1.28-.24 2.133-.24 2.56.053.747.08 1.813.08 3.2.106 3.893.053 7.067-.16 9.52-.054.373-.054 1.04 0 2v2.32c-.107.8-.454 1.44-1.04 1.92-.534.48-1.254.72-2.16.72-.214 0-.4-.027-.56-.08-.854-.053-1.52-.4-2-1.04-.427-.587-.587-1.307-.48-2.16.213-1.28.266-2.72.16-4.32-.054-.96-.08-1.76-.08-2.4 0-.373.026-.907.08-1.6.106-1.28.133-2.373.08-3.28-.054-.16-.027-.72.08-1.68.053-.64.08-1.013.08-1.12v-1.84a38.164 38.164 0 0 1-.08-2.16c0-.48.08-1.147.24-2 .106-.907.133-1.573.08-2-.107-.747-.16-1.253-.16-1.52l.24-6v-.08a6.982 6.982 0 0 0-.72-.08c-.32 0-.64.027-.96.08-.427.107-.747.16-.96.16-.427 0-.934-.08-1.52-.24h-.48c-.267.053-.454.08-.56.08l-.4-.08c-.854-.16-1.227-1.387-1.12-3.68.106-1.44.64-2.16 1.6-2.16h1.76c.426-.053.746-.08.96-.08h2.4v-1.44c.053-.693.24-2.133.56-4.32l.16-.64c.32-2.347.906-4.16 1.76-5.44 1.28-2.08 3.36-3.333 6.24-3.76 2.186-.48 3.76-.72 4.72-.72.96.053 1.706.373 2.24.96Zm-22.484 49.28c1.227 1.493 1.574 2.827 1.04 4-.32.8-1.013 1.2-2.08 1.2-.426 0-.853-.08-1.28-.24-.746-.16-1.52-.613-2.32-1.36-.746-.747-1.28-1.52-1.6-2.32-.373-.96-.666-2.187-.88-3.68a.945.945 0 0 0-.16.24l-.08.08a21.831 21.831 0 0 1-2.96 3.68c-1.6 1.547-3.28 2.747-5.04 3.6-.96.48-2.08.773-3.36.88h-.88c-.96 0-1.866-.107-2.72-.32-3.253-.907-5.813-2.88-7.68-5.92-1.386-2.347-2.053-5.307-2-8.88v-.64c0-1.067.027-1.84.08-2.32.374-2.4.987-4.613 1.84-6.64l.32-.8c.907-1.973 2.08-3.867 3.52-5.68.64-.907 1.52-1.867 2.64-2.88a10.45 10.45 0 0 1 4-2.16c1.6-.747 3.28-1.12 5.04-1.12.587 0 1.147.053 1.68.16 1.494.107 3.2.693 5.12 1.76 1.707 1.12 3.067 2.507 4.08 4.16.854 1.493 1.494 3.253 1.92 5.28.214 1.173.374 2.507.48 4 .054 1.173 0 3.227-.16 6.16-.053 1.707-.106 2.88-.16 3.52 0 .907.134 2.133.4 3.68.16.96.4 1.653.72 2.08l.48.48Zm-7.84-16.88c.107-.48.214-.88.32-1.2 0-.107-.053-.4-.16-.88-.106-.48-.186-.853-.24-1.12-.48-1.707-1.226-2.933-2.24-3.68-1.44-.96-2.986-1.44-4.64-1.44a7.97 7.97 0 0 0-1.12.08c-.053.053-.293.187-.72.4l-.64.24c-1.333.533-2.533 1.333-3.6 2.4l-.48.48c-1.12 1.28-2.08 2.773-2.88 4.48-.213.533-.453 1.36-.72 2.48-.106.587-.266 1.28-.48 2.08-.16.64-.266 1.093-.32 1.36-.16 1.867-.16 3.333 0 4.4.107 1.173.4 2.213.88 3.12.48 1.067 1.094 1.92 1.84 2.56.96.8 1.894 1.2 2.8 1.2 1.28-.053 2.507-.507 3.68-1.36 2.187-1.6 4.32-4.427 6.4-8.48.8-1.6 1.574-3.973 2.32-7.12Zm-26.788 8.4c.747.587.854 1.653.32 3.2-.266.64-.56 1.253-.88 1.84a19.243 19.243 0 0 1-1.44 1.6c-4 4.373-9.013 6.8-15.04 7.28h-1.36c-1.066 0-2.053-.027-2.96-.08l-3.2-.56-.24-.08c-2.453-.8-4.64-1.76-6.56-2.88-3.093-2.133-5.36-4.533-6.8-7.2a7.674 7.674 0 0 1-1.44-2c-.16-.427-.346-.987-.56-1.68-.48-1.387-.773-2.347-.88-2.88l-.4-2.72c-.106-.64-.106-1.627 0-2.96v-1.12c.054-1.333.16-2.427.32-3.28.16-1.387.32-2.56.48-3.52.16-1.067.56-2.347 1.2-3.84.587-2.027 1.36-3.84 2.32-5.44.534-1.12 1.44-2.427 2.72-3.92 1.28-1.547 2.427-2.747 3.44-3.6 3.254-3.093 6.747-5.28 10.48-6.56 2.294-.747 4.56-1.147 6.8-1.2 3.36 0 6.08.8 8.16 2.4 1.76 1.28 2.934 2.907 3.52 4.88.587 1.813.614 3.707.08 5.68-.373 1.12-.88 2.027-1.52 2.72-.64.64-1.333.96-2.08.96-.693 0-1.306-.293-1.84-.88-.906-.907-1.066-2.56-.48-4.96.32-1.44.027-2.533-.88-3.28-.746-.693-2.053-1.093-3.92-1.2h-.72c-2.4 0-4.693.507-6.88 1.52-.373.107-1.093.427-2.16.96-1.013.533-1.653.907-1.92 1.12-1.493 1.067-3.12 2.64-4.88 4.72-1.92 2.347-3.12 4.24-3.6 5.68-.053.107-.16.4-.32.88a23.04 23.04 0 0 0-.48 1.44 29.476 29.476 0 0 0-1.04 3.52 25.83 25.83 0 0 0-.48 2.24c-.266 1.28-.4 3.253-.4 5.92l.56 2.8c.48 1.12.8 2.133.96 3.04l.48.72c.854 1.333 1.52 2.267 2 2.8.534.8 1.414 1.68 2.64 2.64 1.227.907 2.294 1.547 3.2 1.92l2.16.72c.214.053.587.107 1.12.16.32.053.534.107.64.16.587.107 1.28.16 2.08.16h1.04c2.88-.107 5.574-.693 8.08-1.76.534-.213 1.334-.747 2.4-1.6l.48-.4c.32-.267.774-.747 1.36-1.44.48-.533.827-.907 1.04-1.12.96-1.44 2.107-2.16 3.44-2.16.64 0 1.254.213 1.84.64Z"/>
  <path fill="#4B9B4B" d="M130.749 96.48c.587.693.8 1.627.64 2.8-.16 1.387-1.28 2.133-3.36 2.24-2.666.107-4.426.667-5.28 1.68-.32.373-.613.96-.88 1.76-.266.96-.426 1.947-.48 2.96a91.49 91.49 0 0 0-.32 3.92h.24c.267 0 .587.053.96.16.374.107.614.16.72.16.214 0 .56-.027 1.04-.08.694-.107 1.227-.16 1.6-.16.587 0 1.174.08 1.76.24h.48c.267-.053.48-.08.64-.08h.32c.907.213 1.28 1.44 1.12 3.68-.106 1.707-.56 2.56-1.36 2.56h-.16l-.24-.08c-.266-.107-.48-.16-.64-.16-.106 0-.266.027-.48.08a9.22 9.22 0 0 0-.88.16 3.74 3.74 0 0 1-.72-.08 2.423 2.423 0 0 0-.4-.08.896.896 0 0 0-.4.08h-.16c-.16 0-.4-.053-.72-.16h-.72c-.373.053-.64.08-.8.08-.266 0-.56-.053-.88-.16a1.319 1.319 0 0 0-.32-.08l-.08 2.4c.054.8.107 1.36.16 1.68.054.533 0 1.227-.16 2.08.107 1.12.134 2.053.08 2.8 0 .32-.053.987-.16 2-.16 1.28-.24 2.133-.24 2.56.054.747.08 1.813.08 3.2.107 3.893.054 7.067-.16 9.52-.053.373-.053 1.04 0 2v2.32c-.106.8-.453 1.44-1.04 1.92-.533.48-1.253.72-2.16.72-.213 0-.4-.027-.56-.08-.853-.053-1.52-.4-2-1.04-.426-.587-.586-1.307-.48-2.16.214-1.28.267-2.72.16-4.32a44.98 44.98 0 0 1-.08-2.4c0-.373.027-.907.08-1.6.107-1.28.134-2.373.08-3.28-.053-.16-.026-.72.08-1.68.054-.64.08-1.013.08-1.12v-1.84a39.139 39.139 0 0 1-.08-2.16c0-.48.08-1.147.24-2 .107-.907.134-1.573.08-2-.106-.747-.16-1.253-.16-1.52l.24-6v-.08a6.925 6.925 0 0 0-.72-.08c-.32 0-.64.027-.96.08-.426.107-.746.16-.96.16-.426 0-.933-.08-1.52-.24h-.48c-.266.053-.453.08-.56.08l-.4-.08c-.853-.16-1.226-1.387-1.12-3.68.107-1.44.64-2.16 1.6-2.16h1.76a8.58 8.58 0 0 1 .96-.08h2.4v-1.44c.054-.693.24-2.133.56-4.32l.16-.64c.32-2.347.907-4.16 1.76-5.44 1.28-2.08 3.36-3.333 6.24-3.76 2.187-.48 3.76-.72 4.72-.72.96.053 1.707.373 2.24.96Zm-22.483 49.28c1.227 1.493 1.574 2.827 1.04 4-.32.8-1.013 1.2-2.08 1.2-.426 0-.853-.08-1.28-.24-.746-.16-1.52-.613-2.32-1.36-.746-.747-1.28-1.52-1.6-2.32-.373-.96-.666-2.187-.88-3.68a.945.945 0 0 0-.16.24l-.08.08a21.83 21.83 0 0 1-2.96 3.68c-1.6 1.547-3.28 2.747-5.04 3.6-.96.48-2.08.773-3.36.88h-.88c-.96 0-1.866-.107-2.72-.32-3.253-.907-5.813-2.88-7.68-5.92-1.386-2.347-2.053-5.307-2-8.88v-.64c0-1.067.027-1.84.08-2.32.374-2.4.987-4.613 1.84-6.64l.32-.8c.907-1.973 2.08-3.867 3.52-5.68.64-.907 1.52-1.867 2.64-2.88a10.442 10.442 0 0 1 4-2.16c1.6-.747 3.28-1.12 5.04-1.12.587 0 1.147.053 1.68.16 1.494.107 3.2.693 5.12 1.76 1.707 1.12 3.067 2.507 4.08 4.16.854 1.493 1.494 3.253 1.92 5.28.214 1.173.374 2.507.48 4 .054 1.173 0 3.227-.16 6.16-.053 1.707-.106 2.88-.16 3.52 0 .907.134 2.133.4 3.68.16.96.4 1.653.72 2.08l.48.48Zm-7.84-16.88c.107-.48.214-.88.32-1.2 0-.107-.053-.4-.16-.88-.106-.48-.186-.853-.24-1.12-.48-1.707-1.226-2.933-2.24-3.68-1.44-.96-2.986-1.44-4.64-1.44a7.97 7.97 0 0 0-1.12.08c-.053.053-.293.187-.72.4l-.64.24c-1.333.533-2.533 1.333-3.6 2.4l-.48.48c-1.12 1.28-2.08 2.773-2.88 4.48-.213.533-.453 1.36-.72 2.48-.106.587-.266 1.28-.48 2.08-.16.64-.266 1.093-.32 1.36-.16 1.867-.16 3.333 0 4.4.107 1.173.4 2.213.88 3.12.48 1.067 1.094 1.92 1.84 2.56.96.8 1.894 1.2 2.8 1.2 1.28-.053 2.507-.507 3.68-1.36 2.187-1.6 4.32-4.427 6.4-8.48.8-1.6 1.574-3.973 2.32-7.12Zm-27.385 10.64c.427.267.694.72.8 1.36.054.8-.16 1.707-.64 2.72-.48.96-1.066 1.813-1.76 2.56-1.706 1.92-3.813 3.413-6.32 4.48-2.453 1.067-5.12 1.6-8 1.6h-1.04c-2.773-.267-5.253-1.093-7.44-2.48-2.026-1.387-3.76-3.253-5.2-5.6-1.6-2.773-2.48-5.84-2.64-9.2a5.958 5.958 0 0 1-.32-2.4c.107-2.453.587-4.747 1.44-6.88l.08-.32.32-.64c.96-2.027 2.267-3.893 3.92-5.6.8-.853 1.76-1.707 2.88-2.56 1.014-.747 2.32-1.333 3.92-1.76a14.57 14.57 0 0 1 5.6-1.12l.64.08c1.867.053 3.574.373 5.12.96a12.956 12.956 0 0 1 4.64 3.12c1.76 1.813 2.72 4.027 2.88 6.64.214 2.56-.613 4.987-2.48 7.28-1.493 1.6-3.653 2.8-6.48 3.6-2.026.533-4.346.8-6.96.8l-1.28.08c-3.52 0-6.133-.32-7.84-.96.107.533.214 1.12.32 1.76.16 1.067.507 2.24 1.04 3.52.587 1.28 1.174 2.16 1.76 2.64 1.44 1.44 3.254 2.373 5.44 2.8.907.053 1.627.08 2.16.08 1.814 0 3.654-.293 5.52-.88.747-.267 1.574-.8 2.48-1.6.96-.8 1.707-1.6 2.24-2.4 1.174-1.547 2.32-2.32 3.44-2.32.587 0 1.174.213 1.76.64Zm-25.28-12.32c-.266.747-.453 1.387-.56 1.92h.08c.48 0 1.2.133 2.16.4 1.547.48 3.174.72 4.88.72h.64a42.581 42.581 0 0 0 5.44-.72c1.494-.373 2.507-.72 3.04-1.04 1.12-.533 1.787-1.12 2-1.76.16-.427.32-.933.48-1.52.054-.64.027-1.093-.08-1.36-.373-1.387-1.413-2.427-3.12-3.12-1.493-.64-2.933-.96-4.32-.96a5.25 5.25 0 0 0-1.28.16c-.16.053-.533.187-1.12.4-.48.16-.773.24-.88.24a17.734 17.734 0 0 0-4.08 2.24l-.56.56c-1.12 1.067-2.026 2.347-2.72 3.84ZM39.8 145.44c.32.693.293 1.413-.08 2.16-.587 1.173-1.653 1.867-3.2 2.08-1.227.16-2.587.347-4.08.56-2.187.373-4.027.613-5.52.72-.747.053-1.787.08-3.12.08-1.6 0-2.853.027-3.76.08h-.16c-.32 0-1.173-.053-2.56-.16-.64-.053-1.013-.107-1.12-.16h-1.36c-1.92-.053-3.387-.16-4.4-.32a16.349 16.349 0 0 1-1.6-.24l-.8-.24a9.724 9.724 0 0 1-.96-.32c-1.12-.373-1.92-.88-2.4-1.52a1.253 1.253 0 0 1-.24-.32h-.08L3.88 146v-.32c0-.48-.027-1.013-.08-1.6-.053-.48-.08-.827-.08-1.04l.32-9.36c-.053-1.12-.107-1.893-.16-2.32-.053-.693 0-1.6.16-2.72-.107-1.6-.133-2.88-.08-3.84 0-.48.053-1.36.16-2.64.107-1.76.16-2.96.16-3.6 0-1.173-.027-2.56-.08-4.16-.107-2.88-.027-5.84.24-8.88 0-.533-.027-1.467-.08-2.8 0-1.493.027-2.533.08-3.12.053-1.013.347-1.813.88-2.4.587-.587 1.333-.88 2.24-.88h.64c1.493.267 2.187 1.813 2.08 4.64-.053 1.493-.053 3.76 0 6.8v3.92l-.08 9.44c-.053 1.28-.133 3.173-.24 5.68v.48c.16.32.24.827.24 1.52l-.32 9.44c.053 1.067.08 1.84.08 2.32.107.693.08 1.6-.08 2.72v.64h.88l-.24.32c.053 0 .107.027.16.08h.24c1.173.267 2.133.427 2.88.48 1.44.053 2.933.08 4.48.08 1.973 0 5.067-.08 9.28-.24l2.8-.08c1.12-.107 2.853-.48 5.2-1.12.373-.053.72-.08 1.04-.08 1.28 0 2.347.693 3.2 2.08Zm138.537-84.56c.107 3.093.107 5.227 0 6.4-.053.853-.213 1.627-.48 2.32-.267.64-.64 1.147-1.12 1.52-.427.32-.933.48-1.52.48a2.8 2.8 0 0 1-.88-.16 2.44 2.44 0 0 1-1.2-.88 5.22 5.22 0 0 1-.56-1.52c-.053-.587-.107-1.2-.16-1.84 0-.693.027-1.307.08-1.84.16-4.587-.08-9.413-.72-14.48-.267-1.973-.64-4-1.12-6.08l-.24-.88c-.48-1.76-1.04-3.2-1.68-4.32-.693-1.013-1.2-1.547-1.52-1.6-.8-.267-1.52-.4-2.16-.4-.213 0-.4.027-.56.08l-.32.16c-.373.267-.693.427-.96.48-.107.053-.293.187-.56.4-.267.213-.453.347-.56.4a8.53 8.53 0 0 0-.4.48l-.4.4c-.213.213-.453.56-.72 1.04-.213.32-.373.533-.48.64-.8 1.387-1.573 3.147-2.32 5.28l-.16.64a278.685 278.685 0 0 0-.48 2.32c-.053.64-.24 1.573-.56 2.8l-.16.72c-.107.587-.24 1.6-.4 3.04-.16 1.013-.267 1.707-.32 2.08-.587 3.947-.907 6.773-.96 8.48l-.08 1.36c.107.32 0 .8-.32 1.44-.32.587-.72 1.013-1.2 1.28-.533.32-1.12.48-1.76.48a3.58 3.58 0 0 1-.96-.16c-1.013-.267-1.733-.933-2.16-2a1.959 1.959 0 0 1-.16-.72l-.08-.4-.08-2.96-.16-5.68c-.053-4.533.08-8.773.4-12.72 0-.693.027-1.813.08-3.36.053-2.4.107-4.053.16-4.96.107-.853.293-1.6.56-2.24.267-.64.613-1.12 1.04-1.44a2.543 2.543 0 0 1 1.6-.56c.267 0 .56.053.88.16 1.547.48 2.267 1.973 2.16 4.48.107-.16.293-.48.56-.96.587-1.013 1.093-1.787 1.52-2.32.8-1.12 2.053-2.107 3.76-2.96l.4-.16c1.387-.64 2.48-.96 3.28-.96l.48-.08c.48-.053.8-.08.96-.08h.4l2.08.4c.373.053.667.107.88.16l1.6.8c.32.16.667.427 1.04.8l.32.32c.533.48.933.96 1.2 1.44l.8 1.2.56 1.28c.213.427.453.987.72 1.68l.16.48c.907 2.507 1.627 5.28 2.16 8.32.533 3.307.773 6.773.72 10.4l.08 2.08Zm-34.905-1.36c.427.267.693.72.8 1.36.053.8-.16 1.707-.64 2.72-.48.96-1.067 1.813-1.76 2.56-1.707 1.92-3.813 3.413-6.32 4.48-2.453 1.067-5.12 1.6-8 1.6h-1.04c-2.773-.267-5.253-1.093-7.44-2.48-2.027-1.387-3.76-3.253-5.2-5.6-1.6-2.773-2.48-5.84-2.64-9.2a5.959 5.959 0 0 1-.32-2.4c.107-2.453.587-4.747 1.44-6.88l.08-.32.32-.64c.96-2.027 2.267-3.893 3.92-5.6.8-.853 1.76-1.707 2.88-2.56 1.013-.747 2.32-1.333 3.92-1.76a14.575 14.575 0 0 1 5.6-1.12l.64.08c1.867.053 3.573.373 5.12.96a12.96 12.96 0 0 1 4.64 3.12c1.76 1.813 2.72 4.027 2.88 6.64.213 2.56-.613 4.987-2.48 7.28-1.493 1.6-3.653 2.8-6.48 3.6-2.027.533-4.347.8-6.96.8l-1.28.08c-3.52 0-6.133-.32-7.84-.96.107.533.213 1.12.32 1.76.16 1.067.507 2.24 1.04 3.52.587 1.28 1.173 2.16 1.76 2.64 1.44 1.44 3.253 2.373 5.44 2.8.907.053 1.627.08 2.16.08 1.813 0 3.653-.293 5.52-.88.747-.267 1.573-.8 2.48-1.6.96-.8 1.707-1.6 2.24-2.4 1.173-1.547 2.32-2.32 3.44-2.32.587 0 1.173.213 1.76.64Zm-25.28-12.32a14.1 14.1 0 0 0-.56 1.92h.08c.48 0 1.2.133 2.16.4 1.547.48 3.173.72 4.88.72h.64a42.465 42.465 0 0 0 5.44-.72c1.493-.373 2.507-.72 3.04-1.04 1.12-.533 1.787-1.12 2-1.76.16-.427.32-.933.48-1.52.053-.64.027-1.093-.08-1.36-.373-1.387-1.413-2.427-3.12-3.12-1.493-.64-2.933-.96-4.32-.96-.427 0-.853.053-1.28.16-.16.053-.533.187-1.12.4-.48.16-.773.24-.88.24a17.75 17.75 0 0 0-4.08 2.24l-.56.56c-1.12 1.067-2.027 2.347-2.72 3.84Zm-10.345 12.32c.427.267.693.72.8 1.36.053.8-.16 1.707-.64 2.72-.48.96-1.067 1.813-1.76 2.56-1.707 1.92-3.813 3.413-6.32 4.48-2.453 1.067-5.12 1.6-8 1.6h-1.04c-2.773-.267-5.253-1.093-7.44-2.48-2.027-1.387-3.76-3.253-5.2-5.6-1.6-2.773-2.48-5.84-2.64-9.2a5.959 5.959 0 0 1-.32-2.4c.107-2.453.587-4.747 1.44-6.88l.08-.32.32-.64c.96-2.027 2.267-3.893 3.92-5.6.8-.853 1.76-1.707 2.88-2.56 1.013-.747 2.32-1.333 3.92-1.76a14.576 14.576 0 0 1 5.6-1.12l.64.08c1.867.053 3.573.373 5.12.96a12.96 12.96 0 0 1 4.64 3.12c1.76 1.813 2.72 4.027 2.88 6.64.213 2.56-.613 4.987-2.48 7.28-1.493 1.6-3.653 2.8-6.48 3.6-2.027.533-4.347.8-6.96.8l-1.28.08c-3.52 0-6.133-.32-7.84-.96.107.533.213 1.12.32 1.76.16 1.067.507 2.24 1.04 3.52.587 1.28 1.173 2.16 1.76 2.64 1.44 1.44 3.253 2.373 5.44 2.8.907.053 1.627.08 2.16.08 1.813 0 3.653-.293 5.52-.88.747-.267 1.573-.8 2.48-1.6.96-.8 1.707-1.6 2.24-2.4 1.173-1.547 2.32-2.32 3.44-2.32.587 0 1.173.213 1.76.64ZM82.527 47.2a14.125 14.125 0 0 0-.56 1.92h.08c.48 0 1.2.133 2.16.4 1.547.48 3.173.72 4.88.72h.64a42.472 42.472 0 0 0 5.44-.72c1.493-.373 2.507-.72 3.04-1.04 1.12-.533 1.787-1.12 2-1.76.16-.427.32-.933.48-1.52.053-.64.027-1.093-.08-1.36-.373-1.387-1.413-2.427-3.12-3.12-1.493-.64-2.933-.96-4.32-.96-.427 0-.853.053-1.28.16-.16.053-.533.187-1.12.4-.48.16-.773.24-.88.24a17.738 17.738 0 0 0-4.08 2.24l-.56.56c-1.12 1.067-2.027 2.347-2.72 3.84Zm-5.456-10.88c.427.8.427 1.68 0 2.64-.533 1.28-1.546 1.92-3.04 1.92h-.88a6.132 6.132 0 0 0-1.6-.24c-.586 0-1.28.107-2.08.32-.906.267-1.973.72-3.2 1.36-1.866.96-3.28 2.027-4.24 3.2l-.56.56c-.906 1.013-1.413 1.6-1.52 1.76-.693 1.12-1.306 2.48-1.84 4.08-.586 2.08-.853 3.547-.8 4.4l.08.48c.054.64.08 1.093.08 1.36-.053 2.24-.106 4.187-.16 5.84v4.64l-.08.56-.08.48c-.053.16-.133.373-.24.64l-.24.32c-.106.16-.24.32-.4.48-.533.587-1.253.88-2.16.88h-.32c-.586-.053-1.146-.293-1.68-.72a2.2 2.2 0 0 1-.56-.64l-.32-.48a2.514 2.514 0 0 1-.32-.8c-.266-.907-.373-1.893-.32-2.96v-.32a56.29 56.29 0 0 1-.16-3.92c0-.48.054-1.467.16-2.96.107-1.547.16-2.587.16-3.12 0-1.12-.026-2.427-.08-3.92-.053-2.827.054-5.76.32-8.8V37.6c.107-.96.427-1.733.96-2.32.534-.587 1.254-.88 2.16-.88.214 0 .454.027.72.08 1.494.267 2.187 1.76 2.08 4.48-.053.907-.08 1.92-.08 3.04a15.035 15.035 0 0 1 1.76-1.92c2.56-2.507 5.574-4.133 9.04-4.88 1.974-.427 3.707-.64 5.2-.64.587 0 1.12.053 1.6.16 1.28.213 2.16.747 2.64 1.6ZM45.56 46.08c1.813 3.2 2 7.067.56 11.6-1.28 3.573-3.013 6.267-5.2 8.08l-.64.56c-1.013.853-1.893 1.467-2.64 1.84l-.56.32c-.64.373-1.147.64-1.52.8l-2.64 1.12a24.469 24.469 0 0 1-7.12 1.04c-1.653 0-3.28-.16-4.88-.48h-.32c-1.12-.053-2.053-.213-2.8-.48a24.628 24.628 0 0 1-7.28-3.92l-.72-.64c-.427-.373-.987-.96-1.68-1.76l-.8-.88c-.213-.213-.533-.64-.96-1.28l-1.28-2-.8-1.68-.32-.64c-.32-.64-.533-1.147-.64-1.52l-.56-1.92c-.373-1.013-.587-2.373-.64-4.08 0-.587-.027-1.013-.08-1.28-.053-3.253.133-5.733.56-7.44.107-.853.32-1.733.64-2.64.373-1.333.747-2.373 1.12-3.12a22.13 22.13 0 0 1 1.36-2.96c.427-.853.853-1.627 1.28-2.32 2.667-4.533 6.267-8.133 10.8-10.8 2.4-1.387 4.96-2.4 7.68-3.04a33.35 33.35 0 0 1 4.4-.8h1.28c1.44 0 2.773.16 4 .48 2.613.693 4.587 2.08 5.92 4.16 1.387 2.027 1.867 4.347 1.44 6.96-.32 2.027-1.093 3.467-2.32 4.32-.533.373-1.067.56-1.6.56-.587 0-1.147-.267-1.68-.8-.693-.747-.907-2.187-.64-4.32.053-.64.107-1.093.16-1.36.107-1.76-.64-2.933-2.24-3.52-.693-.213-1.467-.32-2.32-.32-1.013 0-2.213.16-3.6.48-3.68.8-6.8 2.107-9.36 3.92-.533.373-1.36 1.013-2.48 1.92-1.067.853-1.68 1.413-1.84 1.68-1.653 1.973-3.093 4.427-4.32 7.36-1.387 3.467-2.08 6.187-2.08 8.16v3.04l.08 1.2c.16 1.547.32 2.56.48 3.04l.16.72c.213.907.4 1.52.56 1.84.107.213.24.507.4.88.267.64.507 1.12.72 1.44l1.12 1.6c.107.213.4.533.88.96.267.32.507.613.72.88a14.88 14.88 0 0 0 2.8 1.84c.533.267 1.12.587 1.76.96.213.107.533.24.96.4.373.107.667.213.88.32 1.387.48 3.253.747 5.6.8h.32c1.867 0 3.307-.133 4.32-.4.48-.053 1.12-.24 1.92-.56l.56-.16c.533-.16 1.12-.453 1.76-.88l1.28-.8 1.2-1.04c.64-.533 1.04-.933 1.2-1.2.693-.907 1.333-2 1.92-3.28.533-1.333.907-2.64 1.12-3.92.267-1.973.027-3.493-.72-4.56a2.37 2.37 0 0 0-.24-.32 3.898 3.898 0 0 0-.4-.24c-.533-.213-1.147-.32-1.84-.32a6.34 6.34 0 0 0-1.04-.08c-.747 0-1.84.08-3.28.24-.693.053-1.253.08-1.68.08-1.653 0-2.827-.347-3.52-1.04-.48-.48-.693-1.093-.64-1.84 0-1.013.773-1.787 2.32-2.32 1.547-.587 3.227-.907 5.04-.96h1.28c1.44 0 2.773.133 4 .4 1.28.32 2.293.747 3.04 1.28.907.64 1.68 1.52 2.32 2.64Z"/>
</svg>
