<svg xmlns="http://www.w3.org/2000/svg" width="600" height="371" fill="none" viewBox="0 0 600 371">
  <g clip-path="url(#a)">
    <path fill="#DDD" d="M0 0h600v371H0z"/>
    <path stroke="#fff" stroke-width="16" d="M336 426.065 673.472 136"/>
    <path stroke="#fff" stroke-width="10" d="m-.078 320.271 536.433-62.827m-433.433-6.617 392.417-45.96M86.651 176.97l195.615-9.168"/>
    <path stroke="#fff" stroke-width="6" d="m257.176 76.073 58.55 211.132"/>
    <path stroke="#fff" stroke-width="10" d="m491.621 206.497 120.949-47.658M374 33l151.254 227.269m2.062 1.01c50.504 3.982 76.371-1.216 117.359-26.136"/>
    <path stroke="#fff" stroke-width="14" d="M105.434 311.264 87.182 155.419"/>
    <path stroke="#fff" stroke-width="16" d="M-5.043 172.252c175.914 2.604 388.682-280.723 647.77-90.053"/>
    <path fill="#AAA" d="m607.329 273.936-1.973.231.93 7.945 1.974-.231-.931-7.945Zm-5.921.693-3.947.462.93 7.946 3.947-.462-.93-7.946Zm-7.895.924-3.947.462.93 7.946 3.948-.462-.931-7.946Zm-7.894.924-3.948.463.93 7.945 3.948-.462-.93-7.946Zm-7.895.925-3.948.462.931 7.945 3.947-.462-.93-7.945Zm-7.895.924-3.947.462.93 7.946 3.947-.462-.93-7.946Zm-7.895.924-3.947.462.93 7.946 3.947-.462-.93-7.946Zm-7.895.924-3.947.463.93 7.945 3.948-.462-.931-7.946Zm-7.894.925-3.948.462.93 7.945 3.948-.462-.93-7.945Zm-7.895.924-3.948.462.931 7.946 3.947-.462-.93-7.946Zm-7.895.924-3.947.462.93 7.946 3.947-.462-.93-7.946Zm-7.895.924-3.947.463.93 7.945 3.947-.462-.93-7.946Zm-7.895.925-3.947.462.93 7.945 3.948-.462-.931-7.945Zm-7.894.924-3.948.462.93 7.946 3.948-.462-.93-7.946Zm-7.895.924-3.948.462.931 7.946 3.947-.462-.93-7.946Zm-7.895.924-3.947.462.93 7.946 3.947-.462-.93-7.946Zm-7.895.925-3.947.462.93 7.945 3.947-.462-.93-7.945Zm-7.895.924-3.947.462.93 7.946 3.948-.462-.931-7.946Zm-7.894.924-3.948.462.93 7.946 3.948-.462-.93-7.946Zm-7.895.924-3.948.463.931 7.945 3.947-.462-.93-7.946Zm-7.895.925-3.947.462.93 7.945 3.947-.462-.93-7.945Zm-7.895.924-3.947.462.93 7.946 3.947-.462-.93-7.946Zm-7.895.924-3.947.462.93 7.946 3.948-.462-.931-7.946Zm-7.894.924-3.948.463.93 7.945 3.948-.462-.93-7.946Zm-7.895.925-3.948.462.931 7.945 3.947-.462-.93-7.945Zm-7.895.924-3.947.462.93 7.946 3.947-.462-.93-7.946Zm-7.895.924-3.947.462.93 7.946 3.947-.462-.93-7.946Zm-7.895.924-3.947.463.93 7.945 3.948-.462-.931-7.946Zm-7.894.925-3.948.462.93 7.945 3.948-.462-.93-7.945Zm-7.895.924-3.948.462.931 7.946 3.947-.462-.93-7.946Zm-7.895.924-3.948.462.931 7.946 3.947-.462-.93-7.946Zm-7.895.924-3.947.463.93 7.945 3.947-.462-.93-7.946Zm-7.895.925-3.947.462.93 7.945 3.947-.462-.93-7.945Zm-7.895.924-3.947.462.93 7.946 3.948-.462-.931-7.946Zm-7.894.924-3.948.462.93 7.946 3.948-.462-.93-7.946Zm-7.895.924-3.948.463.931 7.945 3.947-.462-.93-7.946Zm-7.895.925-3.947.462.93 7.946 3.947-.463-.93-7.945Zm-7.895.924-3.947.462.93 7.946 3.947-.462-.93-7.946Zm-7.895.924-3.947.462.93 7.946 3.948-.462-.931-7.946Zm-7.894.924-3.948.463.93 7.945 3.948-.462-.93-7.946Zm-7.895.925-3.948.462.931 7.946 3.947-.463-.93-7.945Zm-7.895.924-3.947.462.93 7.946 3.947-.462-.93-7.946Zm-7.895.924-3.947.462.93 7.946 3.947-.462-.93-7.946Zm-7.895.924-3.947.463.93 7.945 3.948-.462-.931-7.946Zm-7.894.925-3.948.462.93 7.946 3.948-.463-.93-7.945Zm-7.895.924-3.948.462.931 7.946 3.947-.462-.93-7.946Zm-7.895.924-3.948.462.931 7.946 3.947-.462-.93-7.946Zm-7.895.924-3.947.463.93 7.945 3.947-.462-.93-7.946Zm-7.895.925-3.947.462.93 7.946 3.947-.463-.93-7.945Zm-7.895.924-3.947.462.93 7.946 3.948-.462-.931-7.946Zm-7.894.924-3.948.462.93 7.946 3.948-.462-.93-7.946Zm-7.895.924-3.948.463.931 7.945 3.947-.462-.93-7.946Zm-7.895.925-3.947.462.93 7.946 3.947-.463-.93-7.945Zm-7.895.924-3.947.462.93 7.946 3.947-.462-.93-7.946Zm-7.895.924-3.947.462.93 7.946 3.948-.462-.931-7.946Zm-7.894.924-3.948.463.93 7.945 3.948-.462-.93-7.946Zm-7.895.925-3.948.462.931 7.946 3.947-.463-.93-7.945Zm-7.895.924-3.947.462.93 7.946 3.947-.462-.93-7.946Zm-7.895.924-3.947.462.93 7.946 3.947-.462-.93-7.946Zm-7.895.924-3.947.463.93 7.945 3.948-.462-.931-7.946Zm-7.894.925-3.948.462.93 7.946 3.948-.463-.93-7.945Zm-7.895.924-3.948.462.93 7.946 3.948-.462-.93-7.946Zm-7.895.924-3.948.462.931 7.946 3.947-.462-.93-7.946Zm-7.895.924-3.947.463.93 7.945 3.947-.462-.93-7.946Zm-7.895.925-3.947.462.93 7.946 3.947-.463-.93-7.945Zm-7.895.924-3.947.462.93 7.946 3.948-.462-.93-7.946Zm-7.894.924-3.948.462.93 7.946 3.948-.462-.93-7.946Zm-7.895.924-3.948.463.93 7.945 3.948-.462-.93-7.946Zm-7.895.925-3.947.462.93 7.946 3.947-.463-.93-7.945Zm-7.895.924-3.947.462.93 7.946 3.947-.462-.93-7.946Zm-7.895.924-3.947.462.93 7.946 3.948-.462-.93-7.946Zm-7.894.924-3.948.463.93 7.945 3.948-.462-.93-7.946Zm-7.895.925-3.948.462.93 7.946 3.948-.463-.93-7.945Zm-7.895.924-3.947.462.93 7.946 3.947-.462-.93-7.946Zm-7.895.924-3.947.462.93 7.946 3.947-.462-.93-7.946Zm-7.895.924-3.947.463.93 7.945 3.947-.462-.93-7.946Zm-7.895.925-3.947.462.93 7.946 3.948-.463-.93-7.945Zm-7.894.924-3.948.462.93 7.946 3.948-.462-.93-7.946Zm-7.895.924-1.973.231.93 7.946 1.973-.231-.93-7.946Z"/>
    <rect width="79" height="23" x="231.621" y="309.438" fill="#AAA" rx="1.5" transform="rotate(-6.677 231.621 309.438)"/>
    <rect width="79" height="23" x="231.621" y="309.438" stroke="#59A659" rx="1.5" transform="rotate(-6.677 231.621 309.438)"/>
    <path fill="#000" d="M261.265 315.8c.103-.012.149-.07.137-.173l-.349-2.98c-.012-.103-.07-.149-.173-.137l-2.949.346c-.104.012-.149.069-.137.173l.349 2.98c.012.103.07.149.173.137l2.949-.346Zm-.538-4.326c.372-.043.704.054.994.293.299.227.47.527.514.899l.312 2.67c.044.372-.053.708-.29 1.009a1.3 1.3 0 0 1-.902.499l-2.84.332a1.347 1.347 0 0 1-1.007-.275 1.352 1.352 0 0 1-.501-.917l-.312-2.669a1.292 1.292 0 0 1 .277-.992c.237-.301.542-.473.915-.516l2.84-.333Zm-6.333 2.346a.149.149 0 0 0-.059-.103c-.024-.029-.057-.04-.099-.036l-1.909.224c-.103.012-.159.071-.168.177-.05 1.002-.23 1.883-.54 2.643a5.043 5.043 0 0 1-1.422 1.96.633.633 0 0 1-.441.13.746.746 0 0 1-.402-.204.479.479 0 0 1-.143-.283.465.465 0 0 1 .155-.427c.534-.45.929-.974 1.185-1.57.254-.607.407-1.311.46-2.115a.11.11 0 0 0-.044-.105.105.105 0 0 0-.098-.035l-1.599.187a.542.542 0 0 1-.389-.096.515.515 0 0 1-.198-.355.511.511 0 0 1 .111-.39.513.513 0 0 1 .354-.199l1.739-.204c.103-.012.155-.065.154-.159-.013-.292-.029-.605-.047-.939a.618.618 0 0 1 .139-.425c.1-.127.234-.2.399-.22a.506.506 0 0 1 .408.126c.127.1.195.229.202.385.022.365.032.673.03.925a.11.11 0 0 0 .044.105.153.153 0 0 0 .114.034l1.754-.206c.362-.042.683.057.962.297.257.221.404.492.442.813l.011.093c.048 1.127.056 1.96.025 2.499-.033.528-.121.895-.265 1.1-.189.264-.479.434-.868.511-.163.04-.379.076-.648.107l-.373.044a.719.719 0 0 1-.439-.122.792.792 0 0 1-.28-.376.368.368 0 0 1 .01-.316.344.344 0 0 1 .277-.189c.344-.02.625-.042.842-.068.217-.025.366-.095.447-.209.179-.262.235-1.265.167-3.009Zm8.631 4.921a.512.512 0 0 1 .199.354.514.514 0 0 1-.112.391.511.511 0 0 1-.354.198l-4.656.545c-.031.004-.05.022-.057.054-.006.032.002.058.025.076.678.592 1.5 1.12 2.466 1.583.976.452 1.975.786 2.997 1.002a.421.421 0 0 1 .326.371.438.438 0 0 1-.062.275c-.107.159-.24.28-.398.361a.975.975 0 0 1-.245.06.833.833 0 0 1-.269-.015 15.63 15.63 0 0 1-3.001-1.175 12.488 12.488 0 0 1-2.564-1.745c-.013-.019-.034-.022-.064-.008-.019.013-.028.029-.025.05l.414 3.538a.55.55 0 0 1-.137.441.549.549 0 0 1-.397.235.597.597 0 0 1-.457-.135.575.575 0 0 1-.22-.399l-.427-3.647c-.002-.021-.019-.034-.052-.041-.021-.008-.036-.001-.044.021a13.633 13.633 0 0 1-2.11 2.402 14.645 14.645 0 0 1-2.62 1.943.698.698 0 0 1-.493.089.841.841 0 0 1-.469-.244.399.399 0 0 1-.139-.377.427.427 0 0 1 .229-.326c.9-.472 1.765-1.056 2.596-1.751.841-.696 1.528-1.411 2.061-2.145.018-.023.021-.049.007-.079-.014-.03-.037-.043-.068-.039l-4.733.554a.51.51 0 0 1-.391-.112.512.512 0 0 1-.199-.354.514.514 0 0 1 .112-.391.507.507 0 0 1 .354-.198l5.603-.656c.103-.012.149-.07.137-.174l-.091-.776a.573.573 0 0 1 .121-.439.627.627 0 0 1 .415-.221.572.572 0 0 1 .439.121c.137.1.216.232.235.398l.091.776c.012.103.07.149.173.137l5.463-.64a.51.51 0 0 1 .391.112Zm9.775-7.076c-.012-.103-.07-.149-.174-.137l-2.017.237c-.104.012-.154.07-.153.175-.003.692-.058 1.291-.167 1.797a4.865 4.865 0 0 1-.583 1.468c-.271.462-.658.875-1.161 1.238s-1.135.699-1.896 1.008a.706.706 0 0 1-.486.01.98.98 0 0 1-.426-.281.403.403 0 0 1-.089-.351.375.375 0 0 1 .235-.279c.684-.248 1.245-.518 1.683-.811.436-.303.774-.641 1.014-1.015.238-.385.402-.776.492-1.175.098-.41.151-.899.158-1.466a.11.11 0 0 0-.043-.105.157.157 0 0 0-.115-.034l-2.746.322c-.104.012-.15.07-.137.173l.161 1.382a.557.557 0 0 1-.123.423.579.579 0 0 1-.399.22.556.556 0 0 1-.424-.124.557.557 0 0 1-.218-.383l-.147-1.257a1.3 1.3 0 0 1 .277-.992 1.32 1.32 0 0 1 .915-.516l4.501-.527c.103-.012.149-.07.137-.174l-.106-.9a.578.578 0 0 1 .122-.439.609.609 0 0 1 .838-.098.547.547 0 0 1 .235.397l.106.9c.012.104.07.15.173.138l4.625-.542a1.27 1.27 0 0 1 .994.293c.299.227.47.527.514.899l.104.885a.629.629 0 0 1-.12.454.575.575 0 0 1-.399.22.632.632 0 0 1-.455-.12.627.627 0 0 1-.221-.414l-.118-1.009c-.013-.104-.07-.149-.174-.137l-2.902.34c-.103.012-.149.07-.137.173l.351 2.995c.023.197.079.316.167.358.089.042.279.046.568.012l2.049-.24c.186-.021.31-.083.371-.185.072-.102.106-.306.102-.609a.335.335 0 0 1 .154-.301.364.364 0 0 1 .339-.056.725.725 0 0 1 .392.253.607.607 0 0 1 .159.422c-.013.515-.117.879-.313 1.091-.185.21-.51.342-.976.397l-2.281.267c-.683.08-1.15.035-1.4-.135-.251-.17-.411-.55-.48-1.139l-.35-2.996Zm.586 9.984c.013.104.07.149.174.137l5.695-.666a.49.49 0 0 1 .393.127.507.507 0 0 1 .198.354.527.527 0 0 1-.109.406.513.513 0 0 1-.355.199l-12.818 1.501a.536.536 0 0 1-.592-.482.515.515 0 0 1 .112-.39.49.49 0 0 1 .353-.215l5.617-.657c.104-.013.15-.07.137-.174l-.336-2.871c-.012-.103-.07-.149-.173-.137l-3.973.465a.513.513 0 0 1-.391-.111.515.515 0 0 1-.198-.355.532.532 0 0 1 .464-.605l9.808-1.148a.507.507 0 0 1 .39.112.526.526 0 0 1 .201.37.508.508 0 0 1-.112.39.509.509 0 0 1-.354.199l-4.33.507c-.103.012-.149.07-.137.173l.336 2.871Zm8.834-.467a.292.292 0 0 1-.211.213c-.1.043-.2.039-.3-.012a.399.399 0 0 1-.198-.213.306.306 0 0 1-.027-.091.419.419 0 0 1 .025-.192c.255-.69.343-1.687.264-2.988a.312.312 0 0 1 .079-.261.338.338 0 0 1 .272-.095.405.405 0 0 1 .267.126c.072.076.114.17.128.284.064 1.45-.035 2.526-.299 3.229Zm.763-3.158a.311.311 0 0 1 .021-.222.35.35 0 0 1 .201-.165.323.323 0 0 1 .24.034.297.297 0 0 1 .15.203c.225.76.384 1.492.477 2.194a.4.4 0 0 1-.062.275.43.43 0 0 1-.217.167.301.301 0 0 1-.24-.035c-.069-.055-.112-.15-.127-.284a14.944 14.944 0 0 0-.443-2.167Zm-.353-3.954c-.103.012-.149.07-.137.173l.133 1.133c.012.104.07.149.173.137l1.226-.143c.104-.012.149-.07.137-.174l-.132-1.133c-.012-.103-.07-.149-.174-.137l-1.226.144Zm.846-4.74c-.013-.103-.07-.149-.174-.137l-1.226.144c-.103.012-.149.07-.137.173l.129 1.102c.012.103.07.149.174.137l1.226-.144c.103-.012.149-.07.137-.173l-.129-1.102Zm.268 3.634c.103-.012.149-.07.137-.173l-.131-1.117c-.012-.104-.07-.15-.173-.138l-1.226.144c-.104.012-.15.07-.138.173l.131 1.118c.012.103.07.149.174.137l1.226-.144Zm1.427 2.114c.012.104.07.149.173.137l.916-.107c.372-.044.703.049.992.277.257.222.404.498.443.829l.011.093c.097 1.636.136 2.816.116 3.542-.02.726-.11 1.209-.271 1.448-.178.272-.451.446-.82.521-.164.029-.371.059-.619.088l-.341.04a.552.552 0 0 1-.391-.112.747.747 0 0 1-.259-.331.408.408 0 0 1 .026-.318.269.269 0 0 1 .249-.155c.353-.031.612-.056.778-.075.196-.023.345-.093.447-.21.14-.237.199-.899.176-1.987-.001-.011-.007-.02-.019-.029-.011-.01-.022-.008-.031.003a.466.466 0 0 1-.372.044.552.552 0 0 1-.281-.25 9.64 9.64 0 0 0-.762-1.264.275.275 0 0 1-.056-.214.233.233 0 0 1 .139-.158.425.425 0 0 1 .151-.049c.114-.013.214.038.301.154.324.434.608.888.852 1.363.012.009.023.013.033.012.021-.003.03-.014.027-.035a48.424 48.424 0 0 0-.093-2.144.15.15 0 0 0-.06-.103.103.103 0 0 0-.098-.036l-3.445.403a1.348 1.348 0 0 1-1.008-.275 1.352 1.352 0 0 1-.501-.917l-.635-5.431a1.292 1.292 0 0 1 .277-.992c.237-.301.542-.473.915-.517l4.004-.468a.442.442 0 0 1 .359.115c.114.081.18.194.197.339a.445.445 0 0 1-.115.359.47.47 0 0 1-.325.18l-1.63.191c-.103.012-.149.07-.137.173l.129 1.102c.012.103.07.149.174.137l1.334-.156a.467.467 0 0 1 .358.099.419.419 0 0 1 .178.31.449.449 0 0 1-.102.342.467.467 0 0 1-.325.18l-1.334.156c-.104.012-.149.07-.137.173l.13 1.118c.013.103.07.149.174.137l1.334-.156a.467.467 0 0 1 .358.099.47.47 0 0 1 .18.325.468.468 0 0 1-.1.358.467.467 0 0 1-.325.18l-1.335.156c-.103.012-.149.07-.137.173l.133 1.133Zm.343 4.271a.35.35 0 0 1-.033.255.429.429 0 0 1-.199.181.249.249 0 0 1-.223-.021.286.286 0 0 1-.148-.188 13.534 13.534 0 0 0-.71-1.899.275.275 0 0 1-.01-.219.232.232 0 0 1 .156-.144.309.309 0 0 1 .237.004.287.287 0 0 1 .175.152c.326.634.577 1.26.755 1.879Zm7.549-11.031c-.012-.104-.069-.149-.173-.137l-3.631.425c-.104.012-.149.07-.137.173l.463 3.958c.012.103.07.149.173.137l3.632-.426c.103-.012.149-.069.137-.173l-.464-3.957Zm1.539 3.737c.044.372-.053.709-.291 1.009a1.296 1.296 0 0 1-.901.499l-1.024.12a.15.15 0 0 0-.103.059.134.134 0 0 0-.003.111c.799 2.79 1.931 4.666 3.396 5.627a.614.614 0 0 1 .256.442.585.585 0 0 1-.08.387.714.714 0 0 1-.39.298 2.944 2.944 0 0 0-.093.011.605.605 0 0 1-.372-.083c-1.624-1.152-2.887-3.338-3.788-6.557-.022-.102-.085-.147-.189-.135l-1.133.132c-.103.013-.154.071-.152.176.298 2.996.077 5.318-.663 6.968a.443.443 0 0 1-.316.257.595.595 0 0 1-.43-.044.537.537 0 0 1-.287-.297.67.67 0 0 1-.031-.138.493.493 0 0 1 .046-.273 7.873 7.873 0 0 0 .513-1.664c.119-.602.182-1.223.191-1.863a20.26 20.26 0 0 0-.044-1.726c-.029-.51-.08-1.086-.156-1.728l-.543-4.64a1.301 1.301 0 0 1 .277-.992c.238-.3.543-.472.915-.516l3.446-.403c.372-.044.703.054.993.292.3.227.471.527.515.9l.441 3.771Z"/>
    <path fill="#CCC" d="m47.154 257.492-9.306-79.457 39.729-4.653 9.305 79.457zm161.688-145.863 49.743-2.328 2.328 49.742-49.743 2.329zm-99.099 147.767 58.252-6.822 4.42 37.742-58.252 6.822zM366.074 40.341l41.253 62.635-33.405 22.002-41.253-62.635z"/>
    <path fill="#D2BFAC" d="m472.405 89 22.002 33.405L461 144.407l-22-33.405z"/>
    <path fill="#CCC" d="M299 179.632 398.321 168l4.42 37.742-99.32 11.632z"/>
    <path fill="#59A659" d="M581.77 50.761c-13.342 2.413-16.789 11.356-20.147 18.832l2.738 1.08 1.531-3.324c.695.278 1.422.498 1.951.52 16.164.642 21.566-24.163 21.566-24.163-1.586 2.88-11.887 2.839-19.293 4.016-7.405 1.177-10.592 7.305-10.709 10.244-.117 2.939 2.352 5.613 2.352 5.613 5.316-13.402 20.011-12.818 20.011-12.818Z"/>
    <path fill="#74593E" d="M584.983 94.294c.157.098.255.265.294.5.02.294-.059.628-.235 1a4.018 4.018 0 0 1-.647.941 6.428 6.428 0 0 1-2.324 1.647 7.298 7.298 0 0 1-2.941.589h-.382c-1.02-.098-1.932-.402-2.736-.912-.745-.51-1.382-1.196-1.911-2.059-.589-1.02-.912-2.147-.971-3.382a2.202 2.202 0 0 1-.118-.883c.04-.902.216-1.745.53-2.53l.029-.117.118-.235a7.668 7.668 0 0 1 1.441-2.059 8.54 8.54 0 0 1 1.059-.941c.373-.275.853-.49 1.441-.647a5.361 5.361 0 0 1 2.059-.412l.235.03c.687.02 1.314.137 1.883.353a4.761 4.761 0 0 1 1.705 1.146c.648.667 1.001 1.48 1.059 2.442.079.94-.225 1.833-.911 2.676-.549.588-1.344 1.03-2.383 1.324-.745.196-1.598.294-2.559.294l-.47.03c-1.294 0-2.255-.118-2.883-.354.04.196.079.412.118.647.059.392.186.824.382 1.294.216.471.432.795.647.971.53.53 1.197.873 2 1.03.334.02.599.029.795.029.666 0 1.343-.108 2.029-.324.275-.098.578-.294.912-.588a4.23 4.23 0 0 0 .823-.882c.432-.569.853-.853 1.265-.853.216 0 .431.078.647.235Zm-9.294-4.53a5.16 5.16 0 0 0-.206.707h.029c.177 0 .442.049.795.147a6.011 6.011 0 0 0 1.794.264h.235a15.624 15.624 0 0 0 2-.264c.549-.138.922-.265 1.118-.383.411-.196.657-.412.735-.647.059-.157.118-.343.176-.559.02-.235.01-.402-.029-.5-.137-.51-.52-.892-1.147-1.147-.549-.235-1.078-.353-1.588-.353-.157 0-.314.02-.471.06-.059.019-.196.068-.412.146a1.618 1.618 0 0 1-.323.088 6.52 6.52 0 0 0-1.5.824l-.206.206a4.6 4.6 0 0 0-1 1.412Zm-1.285-11.294c.215.255.294.599.235 1.03-.059.51-.471.784-1.235.823-.981.04-1.628.246-1.942.618-.117.137-.225.353-.323.647a5.072 5.072 0 0 0-.177 1.089 33.2 33.2 0 0 0-.117 1.44h.088c.098 0 .216.02.353.06.137.039.225.058.265.058.078 0 .206-.01.382-.03.255-.038.451-.058.588-.058.216 0 .432.03.647.088h.177c.098-.02.176-.03.235-.03h.118c.333.08.47.53.411 1.354-.039.627-.205.941-.5.941h-.058l-.089-.03a.676.676 0 0 0-.235-.058.8.8 0 0 0-.176.03 3.12 3.12 0 0 0-.324.058 1.37 1.37 0 0 1-.265-.03.869.869 0 0 0-.147-.029.332.332 0 0 0-.147.03h-.059a.932.932 0 0 1-.264-.06h-.265a2.38 2.38 0 0 1-.294.03c-.098 0-.206-.02-.324-.059a.474.474 0 0 0-.117-.03l-.03.883c.02.294.04.5.059.618.02.196 0 .45-.059.765.04.411.049.755.03 1.03 0 .117-.02.362-.059.734-.059.47-.088.785-.088.941.019.275.029.667.029 1.177.039 1.431.02 2.598-.059 3.5-.019.137-.019.382 0 .735v.853c-.039.294-.166.53-.382.706-.196.177-.461.265-.794.265a.651.651 0 0 1-.206-.03.945.945 0 0 1-.735-.382c-.157-.216-.216-.48-.177-.794.079-.47.098-1 .059-1.588-.02-.353-.029-.647-.029-.883 0-.137.009-.333.029-.588.039-.47.049-.872.029-1.206-.019-.059-.009-.264.03-.617.019-.236.029-.373.029-.412v-.677a14.81 14.81 0 0 1-.029-.794c0-.176.029-.421.088-.735.039-.333.049-.578.029-.735a4.823 4.823 0 0 1-.058-.56l.088-2.205v-.03a2.52 2.52 0 0 0-.265-.029c-.117 0-.235.01-.353.03a1.606 1.606 0 0 1-.353.058 2.21 2.21 0 0 1-.559-.088h-.176a1.22 1.22 0 0 1-.206.03l-.147-.03c-.314-.059-.451-.51-.412-1.353.04-.53.236-.794.589-.794h.647c.156-.02.274-.03.353-.03h.882v-.529c.019-.255.088-.784.206-1.588l.059-.235c.117-.863.333-1.53.647-2 .47-.765 1.235-1.226 2.294-1.383.804-.176 1.382-.264 1.735-.264.353.02.628.137.824.353Zm-8.266 18.118c.451.55.578 1.04.382 1.47-.118.295-.372.442-.765.442-.156 0-.313-.03-.47-.088-.275-.06-.559-.226-.853-.5a2.553 2.553 0 0 1-.588-.853c-.138-.353-.245-.804-.324-1.353a.342.342 0 0 0-.059.088l-.029.03a8.08 8.08 0 0 1-1.088 1.353 7.205 7.205 0 0 1-1.853 1.323 3.368 3.368 0 0 1-1.236.323h-.323c-.353 0-.686-.039-1-.117-1.196-.334-2.137-1.059-2.824-2.177-.509-.862-.755-1.95-.735-3.264v-.236c0-.392.01-.676.029-.852a10.4 10.4 0 0 1 .677-2.442l.118-.294c.333-.725.764-1.421 1.294-2.088.235-.333.558-.686.97-1.059a3.843 3.843 0 0 1 1.471-.794 4.33 4.33 0 0 1 1.853-.412c.215 0 .421.02.617.06.549.038 1.177.254 1.883.646a4.86 4.86 0 0 1 1.5 1.53c.314.549.549 1.196.706 1.94.078.432.137.922.176 1.471.02.432 0 1.187-.059 2.265a28.144 28.144 0 0 1-.059 1.294c0 .334.05.784.148 1.353.058.353.147.608.264.765l.177.176Zm-2.883-6.206c.04-.176.079-.323.118-.44 0-.04-.02-.148-.059-.324a26.39 26.39 0 0 1-.088-.412c-.177-.628-.451-1.079-.824-1.353a3.017 3.017 0 0 0-2.117-.5 1.76 1.76 0 0 1-.265.147l-.235.088a3.92 3.92 0 0 0-1.324.883l-.176.176a6.971 6.971 0 0 0-1.059 1.647c-.078.196-.167.5-.265.912-.039.216-.098.47-.176.765-.059.235-.098.401-.118.5-.059.686-.059 1.225 0 1.617.039.432.147.814.324 1.147.176.392.402.706.676.942.353.294.696.44 1.03.44.47-.019.921-.186 1.352-.5.804-.588 1.589-1.627 2.353-3.117.295-.588.579-1.46.853-2.618Zm-9.848 3.088c.274.216.314.608.117 1.177-.098.235-.205.46-.323.676a7.196 7.196 0 0 1-.529.589c-1.471 1.608-3.314 2.5-5.53 2.676h-.5c-.392 0-.755-.01-1.088-.03l-1.177-.205-.088-.03a12.416 12.416 0 0 1-2.412-1.058c-1.137-.785-1.97-1.667-2.5-2.647a2.816 2.816 0 0 1-.529-.736 11.557 11.557 0 0 1-.206-.617c-.176-.51-.284-.863-.323-1.06l-.147-1c-.04-.234-.04-.597 0-1.087v-.412a8.52 8.52 0 0 1 .117-1.206c.059-.51.118-.941.177-1.294.058-.392.206-.863.441-1.412a8.39 8.39 0 0 1 .853-2c.196-.412.529-.892 1-1.441.47-.569.892-1.01 1.264-1.324 1.197-1.137 2.481-1.94 3.853-2.411a8.727 8.727 0 0 1 2.5-.441c1.236 0 2.236.294 3 .882.647.47 1.079 1.069 1.295 1.794.215.667.225 1.363.029 2.088-.137.412-.324.745-.559 1-.235.236-.49.353-.765.353-.255 0-.48-.108-.676-.323-.333-.334-.392-.942-.177-1.824.118-.53.01-.931-.323-1.206-.275-.255-.755-.402-1.441-.441h-.265a5.94 5.94 0 0 0-2.529.559c-.138.039-.402.157-.794.353-.373.196-.608.333-.706.411-.549.393-1.147.971-1.794 1.736-.706.863-1.148 1.559-1.324 2.088-.02.04-.059.147-.118.324a8.34 8.34 0 0 0-.176.529c-.157.431-.284.863-.382 1.294-.059.216-.118.49-.177.824-.098.47-.147 1.196-.147 2.176l.206 1.03c.176.411.294.784.353 1.117l.176.265c.314.49.559.833.736 1.03.196.293.519.617.97.97.451.333.843.569 1.177.706l.794.264c.078.02.215.04.412.06a.98.98 0 0 1 .235.058c.215.04.47.059.765.059h.382a8.3 8.3 0 0 0 2.97-.647c.197-.079.491-.275.883-.588l.176-.147a4.69 4.69 0 0 0 .5-.53c.177-.196.304-.333.383-.412.353-.529.774-.794 1.264-.794.236 0 .461.079.677.236Z"/>
    <path fill="#59A659" d="M538.07 78.47c.215.255.294.599.235 1.03-.059.51-.471.784-1.235.823-.981.04-1.628.246-1.941.618-.118.137-.226.353-.324.647a5.01 5.01 0 0 0-.176 1.089c-.04.352-.079.833-.118 1.44h.088c.098 0 .216.02.353.06.137.039.226.058.265.058.078 0 .206-.01.382-.03.255-.038.451-.058.588-.058.216 0 .432.03.647.088h.177c.098-.02.176-.03.235-.03h.118c.333.08.47.53.412 1.354-.04.627-.206.941-.5.941h-.059l-.088-.03a.68.68 0 0 0-.236-.058.8.8 0 0 0-.176.03 3.171 3.171 0 0 0-.324.058 1.36 1.36 0 0 1-.264-.03.891.891 0 0 0-.148-.029.332.332 0 0 0-.147.03h-.058a.937.937 0 0 1-.265-.06h-.265a2.38 2.38 0 0 1-.294.03c-.098 0-.206-.02-.323-.059a.488.488 0 0 0-.118-.03l-.03.883c.02.294.04.5.059.618.02.196 0 .45-.059.765.04.411.049.755.03 1.03 0 .117-.02.362-.059.734a9.45 9.45 0 0 0-.088.941c.019.275.029.667.029 1.177.039 1.431.02 2.598-.059 3.5-.019.137-.019.382 0 .735v.853c-.039.294-.166.53-.382.706-.196.177-.461.265-.794.265a.655.655 0 0 1-.206-.03.945.945 0 0 1-.735-.382c-.157-.216-.216-.48-.177-.794.079-.47.098-1 .059-1.588a17.006 17.006 0 0 1-.029-.883c0-.137.01-.333.029-.588a8.83 8.83 0 0 0 .03-1.206c-.02-.059-.01-.264.029-.617.02-.236.029-.373.029-.412v-.677a14.81 14.81 0 0 1-.029-.794c0-.176.029-.421.088-.735.039-.333.049-.578.03-.735a4.671 4.671 0 0 1-.059-.56l.088-2.205v-.03a2.492 2.492 0 0 0-.265-.029c-.117 0-.235.01-.353.03a1.606 1.606 0 0 1-.353.058 2.17 2.17 0 0 1-.558-.088h-.177a1.22 1.22 0 0 1-.206.03l-.147-.03c-.314-.059-.451-.51-.412-1.353.04-.53.236-.794.589-.794h.647c.157-.02.274-.03.353-.03h.882v-.529c.02-.255.088-.784.206-1.588l.059-.235c.117-.863.333-1.53.647-2 .47-.765 1.235-1.226 2.294-1.383.804-.176 1.382-.264 1.735-.264.353.02.628.137.824.353Zm-8.266 18.118c.451.55.578 1.04.382 1.47-.117.295-.372.442-.764.442-.157 0-.314-.03-.471-.088-.275-.06-.559-.226-.853-.5a2.553 2.553 0 0 1-.588-.853c-.138-.353-.245-.804-.324-1.353a.37.37 0 0 0-.059.088l-.029.03a8.03 8.03 0 0 1-1.088 1.353 7.188 7.188 0 0 1-1.853 1.323 3.368 3.368 0 0 1-1.235.323h-.324c-.353 0-.686-.039-1-.117-1.196-.333-2.137-1.059-2.824-2.177-.509-.862-.754-1.95-.735-3.264v-.236c0-.392.01-.676.03-.852.137-.883.362-1.697.676-2.442l.118-.294c.333-.725.764-1.421 1.294-2.088.235-.333.559-.686.97-1.059a3.843 3.843 0 0 1 1.471-.794 4.33 4.33 0 0 1 1.853-.412c.216 0 .421.02.618.06.549.038 1.176.254 1.882.646a4.86 4.86 0 0 1 1.5 1.53c.314.549.549 1.196.706 1.94.078.432.137.922.176 1.471.02.432 0 1.187-.059 2.265a30.226 30.226 0 0 1-.058 1.294c0 .334.049.784.147 1.353.059.353.147.608.264.765l.177.176Zm-2.882-6.206a4.52 4.52 0 0 1 .117-.44c0-.04-.019-.148-.059-.324a26.39 26.39 0 0 1-.088-.412c-.176-.628-.451-1.079-.823-1.353a3.02 3.02 0 0 0-2.118-.5 1.76 1.76 0 0 1-.265.147l-.235.088a3.93 3.93 0 0 0-1.324.883l-.176.176a6.971 6.971 0 0 0-1.059 1.647c-.078.196-.167.5-.265.912-.039.216-.098.47-.176.765-.059.235-.098.401-.118.5-.059.686-.059 1.225 0 1.617.039.432.147.814.324 1.147.176.392.402.706.676.942.353.294.696.44 1.03.44.47-.019.921-.186 1.353-.5.804-.588 1.588-1.627 2.353-3.117.294-.588.578-1.46.853-2.618Zm-10.069 3.912c.157.098.255.265.295.5.019.294-.059.628-.236 1a3.988 3.988 0 0 1-.647.941 6.424 6.424 0 0 1-2.323 1.647 7.301 7.301 0 0 1-2.941.589h-.383c-1.019-.098-1.931-.402-2.735-.912-.745-.51-1.382-1.196-1.912-2.059-.588-1.02-.912-2.147-.97-3.382a2.184 2.184 0 0 1-.118-.883 7.668 7.668 0 0 1 .529-2.53l.03-.117.117-.235a7.671 7.671 0 0 1 1.442-2.059 8.6 8.6 0 0 1 1.058-.941c.373-.275.853-.49 1.442-.647a5.352 5.352 0 0 1 2.058-.412l.236.03a5.74 5.74 0 0 1 1.882.353 4.765 4.765 0 0 1 1.706 1.146c.647.667 1 1.48 1.059 2.442.078.94-.226 1.833-.912 2.676-.549.588-1.343 1.03-2.382 1.324-.745.196-1.598.294-2.559.294l-.471.03c-1.294 0-2.255-.118-2.882-.354.039.196.078.412.117.647.059.392.187.824.383 1.294.216.471.431.795.647.971.529.53 1.196.873 2 1.03.333.02.598.029.794.029a6.74 6.74 0 0 0 2.029-.324c.275-.098.579-.294.912-.588.353-.294.628-.588.824-.882.431-.569.853-.853 1.264-.853.216 0 .432.078.647.235Zm-9.294-4.53c-.098.275-.166.51-.206.707h.03c.176 0 .441.049.794.147a6.02 6.02 0 0 0 1.794.264h.235a15.578 15.578 0 0 0 2-.264c.549-.138.922-.265 1.118-.383.412-.196.657-.412.735-.647a6.41 6.41 0 0 0 .177-.559c.019-.235.01-.402-.03-.5-.137-.51-.519-.892-1.147-1.147-.549-.235-1.078-.353-1.588-.353-.157 0-.314.02-.47.06-.059.019-.197.068-.412.146a1.637 1.637 0 0 1-.324.088 6.52 6.52 0 0 0-1.5.824l-.206.206a4.618 4.618 0 0 0-1 1.412Zm-2.927 6.706c.118.255.108.52-.029.795-.216.431-.608.686-1.176.764-.451.06-.951.128-1.5.206a21.25 21.25 0 0 1-2.03.265c-.274.02-.657.03-1.147.03-.588 0-1.049.01-1.382.029h-.059c-.118 0-.431-.02-.941-.059-.236-.02-.373-.04-.412-.059h-.5c-.706-.02-1.245-.059-1.618-.118a6.083 6.083 0 0 1-.588-.088l-.294-.088a3.697 3.697 0 0 1-.353-.118c-.412-.137-.706-.323-.882-.558a.455.455 0 0 1-.089-.118h-.029l-.176-.676v-.118c0-.177-.01-.373-.03-.588a4.093 4.093 0 0 1-.029-.383l.117-3.44a13.393 13.393 0 0 0-.058-.854c-.02-.255 0-.588.058-1a12.089 12.089 0 0 1-.029-1.412c0-.176.02-.5.059-.97.039-.647.059-1.089.059-1.324 0-.431-.01-.94-.03-1.53a26.285 26.285 0 0 1 .088-3.264c0-.196-.009-.54-.029-1.03 0-.548.01-.93.029-1.146.02-.373.128-.667.324-.883.216-.215.49-.323.824-.323h.235c.549.098.804.666.765 1.706-.02.549-.02 1.382 0 2.5v1.44l-.03 3.471-.088 2.089v.176c.059.118.088.304.088.559l-.118 3.47c.02.393.03.677.03.854.039.254.029.588-.03 1v.235h.324l-.088.117c.019 0 .039.01.059.03h.088c.431.098.784.157 1.059.176.529.02 1.078.03 1.647.03.725 0 1.862-.03 3.411-.088l1.03-.03c.412-.04 1.049-.176 1.912-.412.137-.02.264-.03.382-.03.471 0 .863.256 1.176.766Zm50.933-31.088c.039 1.138.039 1.922 0 2.353a2.846 2.846 0 0 1-.176.853 1.35 1.35 0 0 1-.412.56.905.905 0 0 1-.559.175c-.098 0-.206-.02-.323-.058a.899.899 0 0 1-.442-.324 1.944 1.944 0 0 1-.206-.559c-.019-.215-.039-.44-.058-.676 0-.255.009-.48.029-.677a33.157 33.157 0 0 0-.265-5.323 24.736 24.736 0 0 0-.411-2.235l-.089-.324c-.176-.647-.382-1.176-.617-1.588-.255-.373-.441-.569-.559-.588a2.54 2.54 0 0 0-.794-.147.651.651 0 0 0-.206.029l-.118.059a.978.978 0 0 1-.353.176c-.039.02-.108.069-.206.147a1.504 1.504 0 0 1-.205.147c-.02.02-.069.079-.148.177l-.147.147a1.801 1.801 0 0 0-.264.382 1.809 1.809 0 0 1-.177.236c-.294.51-.578 1.156-.853 1.94l-.059.236c-.078.373-.137.657-.176.853-.02.235-.088.578-.206 1.03l-.059.264a19.21 19.21 0 0 0-.147 1.118 47.53 47.53 0 0 0-.117.764c-.216 1.451-.334 2.49-.353 3.118l-.03.5c.039.118 0 .294-.117.53a1.145 1.145 0 0 1-.442.47 1.232 1.232 0 0 1-.647.176c-.098 0-.215-.02-.353-.058-.372-.098-.637-.343-.794-.736a.727.727 0 0 1-.059-.264l-.029-.147-.029-1.089-.059-2.088c-.02-1.666.029-3.225.147-4.676 0-.255.01-.667.029-1.236.02-.882.04-1.49.059-1.823.039-.314.108-.588.206-.824.098-.235.225-.411.382-.53a.938.938 0 0 1 .912-.146c.569.176.833.725.794 1.647a6.55 6.55 0 0 0 .206-.353c.216-.373.402-.657.559-.853.294-.412.755-.774 1.382-1.088l.147-.059c.51-.235.912-.353 1.206-.353l.177-.03c.176-.019.294-.029.353-.029h.147l.764.147c.138.02.246.04.324.06l.588.293c.118.06.245.157.383.294.058.06.098.098.117.118.196.176.343.353.441.53l.294.44.206.471c.079.157.167.363.265.618l.059.176c.333.922.598 1.941.794 3.06a22.02 22.02 0 0 1 .265 3.823l.029.764Zm-12.833-.5c.157.098.255.265.295.5.019.294-.059.628-.236 1a3.99 3.99 0 0 1-.647.941 6.424 6.424 0 0 1-2.323 1.648c-.902.392-1.883.588-2.942.588h-.382c-1.02-.098-1.931-.402-2.735-.912-.745-.51-1.383-1.196-1.912-2.059-.588-1.02-.912-2.147-.971-3.382a2.184 2.184 0 0 1-.117-.883 7.643 7.643 0 0 1 .529-2.529l.03-.117.117-.236a7.689 7.689 0 0 1 1.441-2.059 8.67 8.67 0 0 1 1.059-.94c.373-.275.853-.491 1.441-.648a5.36 5.36 0 0 1 2.059-.412l.236.03a5.74 5.74 0 0 1 1.882.353 4.765 4.765 0 0 1 1.706 1.147c.647.666 1 1.48 1.059 2.44.078.942-.226 1.834-.912 2.677-.549.589-1.343 1.03-2.382 1.324-.746.196-1.599.294-2.559.294l-.471.03c-1.294 0-2.255-.118-2.882-.353.039.196.078.411.117.647.059.392.187.823.383 1.294.215.47.431.794.647.97.529.53 1.196.873 2 1.03.333.02.598.03.794.03a6.76 6.76 0 0 0 2.029-.324c.275-.099.579-.294.912-.589a4.24 4.24 0 0 0 .824-.882c.431-.569.853-.853 1.264-.853.216 0 .432.078.647.235Zm-9.294-4.53a5.31 5.31 0 0 0-.206.707h.03c.176 0 .441.049.794.147a6.02 6.02 0 0 0 1.794.265h.235a15.79 15.79 0 0 0 2-.265c.549-.137.922-.265 1.118-.383.412-.196.657-.411.735-.647.059-.156.118-.343.177-.558.019-.236.01-.402-.03-.5-.137-.51-.519-.893-1.147-1.147-.549-.236-1.078-.353-1.588-.353-.157 0-.314.02-.471.058l-.411.148a1.633 1.633 0 0 1-.324.088 6.52 6.52 0 0 0-1.5.823l-.206.206a4.616 4.616 0 0 0-1 1.412Zm-3.803 4.53c.157.098.255.265.294.5.02.294-.059.628-.235 1a4.02 4.02 0 0 1-.647.941 6.428 6.428 0 0 1-2.324 1.648c-.902.392-1.882.588-2.941.588h-.382c-1.02-.098-1.932-.402-2.736-.912-.745-.51-1.382-1.196-1.911-2.059-.589-1.02-.912-2.147-.971-3.382a2.202 2.202 0 0 1-.118-.883 7.67 7.67 0 0 1 .53-2.529l.029-.117.118-.236a7.666 7.666 0 0 1 1.441-2.059 8.524 8.524 0 0 1 1.059-.94c.372-.275.853-.491 1.441-.648a5.36 5.36 0 0 1 2.059-.412l.235.03c.686.02 1.314.137 1.883.353a4.762 4.762 0 0 1 1.705 1.147c.647.666 1 1.48 1.059 2.44.079.942-.225 1.834-.912 2.677-.549.589-1.343 1.03-2.382 1.324-.745.196-1.598.294-2.559.294l-.47.03c-1.294 0-2.255-.118-2.883-.353.04.196.079.411.118.647.059.392.186.823.382 1.294.216.47.432.794.647.97.53.53 1.196.873 2 1.03a14 14 0 0 0 .795.03c.666 0 1.343-.109 2.029-.324.274-.099.578-.294.912-.589.353-.294.627-.588.823-.882.432-.569.853-.853 1.265-.853.216 0 .431.078.647.235Zm-9.294-4.53c-.098.276-.167.51-.206.707h.029c.177 0 .442.049.795.147a6.011 6.011 0 0 0 1.794.265h.235a15.63 15.63 0 0 0 2-.265c.549-.137.921-.265 1.118-.383.411-.196.656-.411.735-.647a6.12 6.12 0 0 0 .176-.558c.02-.236.01-.402-.029-.5-.137-.51-.52-.893-1.147-1.147-.549-.236-1.079-.353-1.588-.353-.157 0-.314.02-.471.058-.059.02-.196.07-.412.148a1.614 1.614 0 0 1-.323.088 6.52 6.52 0 0 0-1.5.823l-.206.206a4.6 4.6 0 0 0-1 1.412Zm-2.006-3.999c.157.294.157.618 0 .97-.196.471-.569.706-1.118.706h-.323a2.258 2.258 0 0 0-.588-.088c-.216 0-.471.04-.765.118a6.75 6.75 0 0 0-1.176.5c-.687.353-1.206.745-1.559 1.176l-.206.206c-.334.373-.52.588-.559.647-.255.412-.48.912-.676 1.5-.216.765-.314 1.304-.295 1.618l.03.176c.019.236.029.402.029.5-.019.824-.039 1.54-.059 2.147v1.706l-.029.206-.029.177c-.02.059-.049.137-.089.235l-.088.118a1.15 1.15 0 0 1-.147.176c-.196.216-.461.324-.794.324h-.118a1.148 1.148 0 0 1-.617-.265.804.804 0 0 1-.206-.235l-.118-.177a.93.93 0 0 1-.118-.294 3.25 3.25 0 0 1-.117-1.088v-.118a20.69 20.69 0 0 1-.059-1.441c0-.176.02-.54.059-1.088.039-.569.059-.951.059-1.147 0-.412-.01-.893-.03-1.442a30.64 30.64 0 0 1 .118-3.235v-2.117c.039-.353.157-.638.353-.853.196-.216.461-.324.794-.324.078 0 .167.01.265.03.549.098.804.647.764 1.647-.019.333-.029.705-.029 1.117.196-.255.412-.49.647-.706a6.669 6.669 0 0 1 3.324-1.794c.725-.157 1.362-.235 1.911-.235.216 0 .412.02.589.059.47.078.794.274.97.588Zm-11.585 3.588c.667 1.177.735 2.598.206 4.265-.471 1.314-1.108 2.304-1.912 2.97l-.235.206c-.373.314-.696.54-.971.677l-.206.118a5.489 5.489 0 0 1-.558.294l-.971.411a8.997 8.997 0 0 1-2.618.383 9.133 9.133 0 0 1-1.794-.177h-.117c-.412-.02-.755-.078-1.03-.176a9.06 9.06 0 0 1-2.676-1.441l-.265-.236a6.962 6.962 0 0 1-.618-.647l-.294-.323a3.552 3.552 0 0 1-.353-.47l-.47-.736-.294-.618-.118-.235a3.448 3.448 0 0 1-.235-.559l-.206-.706c-.137-.372-.216-.872-.235-1.5 0-.216-.01-.372-.03-.47-.02-1.196.049-2.108.206-2.736a4.68 4.68 0 0 1 .235-.97c.138-.49.275-.873.412-1.147a8.22 8.22 0 0 1 .5-1.089c.157-.313.314-.598.471-.853a11.012 11.012 0 0 1 3.97-3.97c.883-.51 1.824-.883 2.824-1.118a12.252 12.252 0 0 1 1.617-.294h.471c.529 0 1.02.059 1.471.177.96.255 1.686.764 2.176 1.529.51.745.686 1.598.529 2.559-.117.745-.402 1.274-.852 1.588a1.026 1.026 0 0 1-.589.206c-.215 0-.421-.098-.617-.294-.255-.275-.334-.804-.236-1.588.02-.236.04-.402.059-.5.039-.647-.235-1.079-.823-1.294a2.896 2.896 0 0 0-.853-.118c-.373 0-.814.059-1.324.176-1.353.294-2.5.775-3.441 1.441-.196.138-.5.373-.912.706-.392.314-.617.52-.676.618-.608.725-1.138 1.627-1.588 2.706-.51 1.274-.765 2.274-.765 3v1.117l.029.442c.059.568.118.94.177 1.117l.059.265c.078.333.147.559.205.677.04.078.089.186.147.323.098.235.187.412.265.53l.412.588c.039.078.147.196.323.353.098.117.187.225.265.323.333.275.677.5 1.03.677.196.098.411.215.647.353.078.039.196.088.353.147.137.039.245.078.323.117.51.177 1.196.275 2.059.294h.118c.686 0 1.215-.049 1.588-.147.176-.02.412-.088.706-.206l.206-.058c.196-.06.411-.167.647-.324l.47-.294.441-.382c.236-.196.383-.343.442-.441a6.36 6.36 0 0 0 .705-1.206c.197-.49.334-.971.412-1.442.098-.725.01-1.284-.264-1.676a.897.897 0 0 0-.089-.118 1.483 1.483 0 0 0-.147-.088 1.807 1.807 0 0 0-.676-.118 2.335 2.335 0 0 0-.383-.029c-.274 0-.676.03-1.205.088-.255.02-.461.03-.618.03-.608 0-1.039-.128-1.294-.383-.177-.176-.255-.402-.236-.676 0-.373.285-.657.853-.853a5.663 5.663 0 0 1 1.853-.353h.471c.529 0 1.02.049 1.471.147.47.118.843.275 1.117.47.333.236.618.56.853.971Z"/>
    <path stroke="#59A659" stroke-linecap="round" stroke-linejoin="round" stroke-width="3" d="m462.645 102.218 2.272 11.353a.84.84 0 0 0 .441.579.836.836 0 0 0 .728.012l10.493-4.896a.841.841 0 0 0 .367-.334.832.832 0 0 0-.481-1.22l-3.175-.943c1.983-8.366 7.569-9.448 10.765-9.337.466.016.766-.758.373-1.006-10.225-6.377-15.332-.13-17.701 7.053l-2.764-2.091a.835.835 0 0 0-1.319.828"/>
  </g>
  <defs>
    <clipPath id="a">
      <path fill="#fff" d="M0 0h600v371H0z"/>
    </clipPath>
  </defs>
</svg>
