<svg xmlns="http://www.w3.org/2000/svg" width="768" height="475" fill="none" viewBox="0 0 768 475">
  <g clip-path="url(#a)">
    <path fill="#DDD" d="M0 0h768v474.88H0z"/>
    <path fill="#fff" fill-rule="evenodd" d="M868.719 181.846 436.755 553.129l-13.35-15.531 431.964-371.284 13.35 15.532Z" clip-rule="evenodd"/>
    <path fill="#fff" fill-rule="evenodd" d="M687.279 335.885.644 416.303-.845 403.59l686.635-80.418 1.489 12.713Zm-52.5-67.299-502.295 58.829-1.489-12.713 502.295-58.829 1.489 12.713ZM361.601 221.18l-250.388 11.735-.599-12.786 250.387-11.735.6 12.786Z" clip-rule="evenodd"/>
    <path fill="#fff" fill-rule="evenodd" d="m400.429 368.649-74.944-270.25 7.401-2.052 74.944 270.249-7.401 2.053Zm386.007-159.381L631.621 270.27l-4.692-11.908 154.815-61.003 4.692 11.909Z" clip-rule="evenodd"/>
    <path fill="#fff" fill-rule="evenodd" d="M666.997 336.69 473.392 45.786l10.656-7.092 193.605 290.904-10.656 7.092Z" clip-rule="evenodd"/>
    <path fill="#fff" fill-rule="evenodd" d="M756.01 337.835c-23.804 5.208-48.959 5.551-81.549 2.982l1.007-12.761c32.056 2.528 55.778 2.094 77.806-2.725 21.983-4.809 42.701-14.079 68.586-29.817l6.65 10.937c-26.581 16.161-48.65 26.166-72.5 31.384ZM120.492 197.894l23.363 199.481-17.798 2.085-23.363-199.481 17.798-2.085Z" clip-rule="evenodd"/>
    <path fill="#fff" fill-rule="evenodd" d="M175.861 178.802c-62.555 29.801-123.64 52.79-182.468 51.919l.303-20.477c53.757.795 111.154-20.298 173.357-49.931 24.557-11.699 49.581-24.584 75.275-37.813 6.754-3.477 13.554-6.979 20.404-10.489 32.815-16.814 66.648-33.755 101.387-48.828 69.442-30.13 143.114-53.074 220.825-52.69 77.959.384 159.25 24.24 243.816 86.475l-12.139 16.495c-81.251-59.795-158.364-82.128-231.778-82.49-73.661-.364-144.329 21.388-212.573 50.998-34.104 14.797-67.451 31.488-100.199 48.267-6.76 3.464-13.501 6.935-20.218 10.393-25.73 13.248-51.12 26.322-75.992 38.171Z" clip-rule="evenodd"/>
    <path fill="#AAA" fill-rule="evenodd" d="m-10.835 442.915 2.559-.3 1.19 10.171-2.559.3-1.19-10.171Zm7.677-.899 5.118-.599 1.191 10.171-5.118.599-1.19-10.171Zm10.237-1.198 5.118-.599 1.19 10.17-5.118.599-1.19-10.17Zm10.236-1.199 5.119-.599 1.19 10.171-5.118.599-1.19-10.171Zm10.237-1.198 5.118-.599 1.19 10.17-5.117.6-1.191-10.171Zm10.236-1.198 5.119-.6 1.19 10.171-5.118.599-1.19-10.17Zm10.237-1.199 5.118-.599 1.191 10.171-5.118.599-1.19-10.171Zm10.237-1.198 5.118-.599 1.19 10.17-5.118.599-1.19-10.17Zm10.236-1.199 5.119-.599 1.19 10.171-5.118.599-1.19-10.171Zm10.237-1.198 5.118-.599 1.19 10.17-5.118.6-1.19-10.171Zm10.236-1.198 5.119-.6 1.19 10.171-5.118.599-1.19-10.17Zm10.237-1.199 5.118-.599 1.191 10.171-5.118.599-1.191-10.171Zm10.237-1.198 5.118-.599 1.191 10.17-5.119.599-1.19-10.17Zm10.236-1.199 5.119-.599 1.19 10.171-5.118.599-1.191-10.171Zm10.237-1.198 5.118-.599 1.191 10.17-5.119.6-1.19-10.171Zm10.236-1.198 5.119-.6 1.19 10.171-5.118.599-1.191-10.17Zm10.237-1.199 5.118-.599 1.191 10.171-5.118.599-1.191-10.171Zm10.237-1.198 5.118-.599 1.191 10.17-5.119.599-1.19-10.17Zm10.236-1.199 5.118-.599 1.191 10.171-5.118.599-1.191-10.171Zm10.237-1.198 5.118-.599 1.191 10.17-5.119.6-1.19-10.171Zm10.236-1.198 5.119-.6 1.19 10.171-5.118.599-1.191-10.17Zm10.237-1.199 5.118-.599 1.191 10.171-5.118.599-1.191-10.171Zm10.236-1.198 5.119-.599 1.19 10.17-5.118.599-1.191-10.17Zm10.237-1.199 5.118-.599 1.191 10.171-5.118.599-1.191-10.171Zm10.237-1.198 5.118-.599 1.191 10.17-5.119.599-1.19-10.17Zm10.236-1.198 5.118-.6 1.191 10.171-5.118.599-1.191-10.17Zm10.237-1.199 5.118-.599 1.191 10.17-5.119.6-1.19-10.171Zm10.236-1.198 5.119-.599 1.19 10.17-5.118.599-1.191-10.17Zm10.237-1.199 5.118-.599 1.191 10.171-5.118.599-1.191-10.171Zm10.237-1.198 5.118-.599 1.191 10.17-5.119.599-1.19-10.17Zm10.236-1.198 5.118-.6 1.191 10.171-5.118.599-1.191-10.17Zm10.237-1.199 5.118-.599 1.191 10.17-5.119.6-1.19-10.171Zm10.236-1.198 5.119-.599 1.19 10.17-5.118.599-1.191-10.17Zm10.237-1.199 5.118-.599 1.191 10.171-5.118.599-1.191-10.171Zm10.236-1.198 5.119-.599 1.19 10.17-5.118.599-1.191-10.17Zm10.237-1.198 5.118-.6 1.191 10.171-5.118.599-1.191-10.17Zm10.237-1.199 5.118-.599 1.191 10.17-5.119.6-1.19-10.171Zm10.236-1.198 5.119-.6 1.19 10.171-5.118.599-1.191-10.17Zm10.237-1.199 5.118-.599 1.191 10.171-5.118.599-1.191-10.171Zm10.236-1.198 5.119-.599 1.19 10.17-5.118.599-1.191-10.17Zm10.237-1.199 5.118-.599 1.191 10.171-5.118.599-1.191-10.171Zm10.237-1.198 5.118-.599 1.191 10.17-5.119.6-1.19-10.171Zm10.236-1.198 5.118-.6 1.191 10.171-5.118.599-1.191-10.17Zm10.237-1.199 5.118-.599 1.191 10.171-5.119.599-1.19-10.171Zm10.236-1.198 5.119-.599 1.19 10.17-5.118.599-1.191-10.17Zm10.237-1.199 5.118-.599 1.191 10.171-5.118.599-1.191-10.171Zm10.236-1.198 5.119-.599 1.19 10.17-5.118.6-1.191-10.171Zm10.237-1.198 5.118-.6 1.191 10.171-5.118.599-1.191-10.17Zm10.237-1.199 5.118-.599 1.191 10.171-5.119.599-1.19-10.171Zm10.236-1.198 5.119-.599 1.19 10.17-5.118.599-1.191-10.17Zm10.237-1.199 5.118-.599 1.191 10.171-5.119.599-1.19-10.171Zm10.236-1.198 5.119-.599 1.19 10.17-5.118.6-1.191-10.171Zm10.237-1.198 5.118-.6 1.191 10.171-5.118.599-1.191-10.17Zm10.237-1.199 5.118-.599 1.191 10.171-5.119.599-1.19-10.171Zm10.236-1.198 5.118-.599 1.191 10.17-5.118.599-1.191-10.17Zm10.237-1.199 5.118-.599 1.191 10.171-5.119.599-1.19-10.171Zm10.236-1.198 5.119-.599 1.19 10.17-5.118.6-1.191-10.171Zm10.237-1.198 5.118-.6 1.191 10.171-5.118.599-1.191-10.17Zm10.236-1.199 5.119-.599 1.19 10.171-5.118.599-1.191-10.171Zm10.237-1.198 5.118-.599 1.191 10.17-5.118.599-1.191-10.17Zm10.237-1.199 5.118-.599 1.191 10.171-5.119.599-1.19-10.171Zm10.236-1.198 5.119-.599 1.19 10.17-5.118.6-1.191-10.171Zm10.237-1.198 5.118-.6 1.191 10.171-5.118.599-1.191-10.17Zm10.236-1.199 5.119-.599 1.19 10.171-5.118.599-1.191-10.171Zm10.237-1.198 5.118-.599 1.191 10.17-5.118.599-1.191-10.17Zm10.237-1.199 5.118-.599 1.191 10.171-5.119.599-1.19-10.171Zm10.236-1.198 5.118-.599 1.191 10.17-5.118.6-1.191-10.171Zm10.237-1.198 5.118-.6 1.191 10.171-5.119.599-1.19-10.17Zm10.236-1.199 5.119-.599 1.19 10.171-5.118.599-1.191-10.171Zm10.237-1.198 5.118-.599 1.191 10.17-5.118.599-1.191-10.17Zm10.236-1.199 5.119-.599 1.19 10.171-5.118.599-1.191-10.171Zm10.237-1.198 5.118-.599 1.191 10.17-5.118.6-1.191-10.171Zm10.237-1.198 5.118-.6 1.191 10.171-5.119.599-1.19-10.17Zm10.236-1.199 5.119-.599 1.19 10.171-5.118.599-1.191-10.171Zm10.237-1.198 5.118-.599 1.191 10.17-5.118.599-1.191-10.17Zm10.236-1.199 5.119-.599 1.19 10.171-5.118.599-1.191-10.171Zm10.237-1.198 5.118-.599 1.191 10.17-5.118.6-1.191-10.171Zm10.237-1.198 2.559-.3 1.19 10.17-2.559.3-1.19-10.17Z" clip-rule="evenodd"/>
    <rect width="99.587" height="28.447" x="296.06" y="395.754" fill="#AAA" rx=".8" transform="rotate(-6.677 296.06 395.754)"/>
    <rect width="99.587" height="28.447" x="296.06" y="395.754" stroke="#4B9B4B" stroke-width=".533" rx=".8" transform="rotate(-6.677 296.06 395.754)"/>
    <path fill="#000" d="M359.578 410.303a.373.373 0 0 1-.264.273.413.413 0 0 1-.376-.016.504.504 0 0 1-.248-.272.41.41 0 0 1-.033-.117.54.54 0 0 1 .031-.245c.319-.884.429-2.159.33-3.825a.404.404 0 0 1 .1-.334.417.417 0 0 1 .34-.122.496.496 0 0 1 .334.162c.09.096.143.217.16.363.081 1.856-.044 3.234-.374 4.133Zm.955-4.041a.405.405 0 0 1 .027-.285.444.444 0 0 1 .251-.212.398.398 0 0 1 .301.045.38.38 0 0 1 .187.259c.282.973.481 1.909.597 2.808a.53.53 0 0 1-.349.566.366.366 0 0 1-.3-.045c-.087-.07-.14-.191-.16-.363a19.248 19.248 0 0 0-.554-2.773Zm-.441-5.062c-.13.015-.187.089-.172.222l.166 1.45c.015.132.088.191.217.175l1.535-.184c.129-.015.187-.089.171-.221l-.166-1.451c-.015-.132-.087-.19-.217-.175l-1.534.184Zm1.058-6.067c-.015-.133-.088-.191-.217-.176l-1.535.184c-.13.016-.187.09-.172.222l.162 1.41c.015.133.087.191.217.176l1.535-.184c.129-.015.186-.089.171-.222l-.161-1.41Zm.335 4.651c.13-.015.187-.089.172-.221l-.164-1.431c-.015-.132-.087-.191-.217-.175l-1.535.184c-.129.015-.186.089-.171.222l.164 1.43c.015.132.087.191.217.175l1.534-.184Zm1.787 2.706c.015.133.088.191.217.176l1.146-.137c.467-.056.881.062 1.242.354.322.284.507.638.555 1.062l.014.119c.121 2.093.17 3.604.145 4.533-.025.93-.138 1.547-.34 1.853-.222.349-.564.571-1.026.667-.206.038-.464.075-.775.113l-.427.051a.675.675 0 0 1-.489-.143.959.959 0 0 1-.325-.424.54.54 0 0 1 .033-.407.335.335 0 0 1 .312-.198c.442-.04.766-.072.973-.097.246-.029.433-.119.56-.268.176-.303.249-1.151.221-2.544-.001-.013-.009-.025-.024-.037-.014-.012-.027-.01-.039.005a.577.577 0 0 1-.466.055.697.697 0 0 1-.352-.32 12.442 12.442 0 0 0-.953-1.618.359.359 0 0 1-.071-.273.3.3 0 0 1 .174-.202.526.526 0 0 1 .19-.063c.142-.017.268.048.377.196.405.556.76 1.138 1.066 1.745.015.012.028.017.041.016.026-.003.038-.018.035-.045-.002-.469-.041-1.384-.118-2.744a.19.19 0 0 0-.074-.132c-.03-.037-.071-.052-.123-.046l-4.313.516a1.659 1.659 0 0 1-1.261-.352 1.734 1.734 0 0 1-.627-1.174l-.796-6.952c-.055-.477.061-.9.347-1.27a1.646 1.646 0 0 1 1.145-.661l5.012-.6a.55.55 0 0 1 .451.148.591.591 0 0 1 .246.433.577.577 0 0 1-.144.461.587.587 0 0 1-.407.23l-2.04.244c-.129.015-.187.089-.171.222l.161 1.41c.015.132.088.191.217.175l1.671-.2a.58.58 0 0 1 .448.128.537.537 0 0 1 .222.396.585.585 0 0 1-.127.438.578.578 0 0 1-.407.23l-1.671.2c-.129.016-.186.09-.171.222l.164 1.43c.015.133.087.191.217.176l1.67-.2a.577.577 0 0 1 .448.127.598.598 0 0 1 .225.417.604.604 0 0 1-.125.457.578.578 0 0 1-.407.23l-1.67.2c-.13.016-.187.09-.172.222l.166 1.45Zm.429 5.466a.457.457 0 0 1-.041.328.539.539 0 0 1-.249.231c-.088.037-.181.028-.279-.027a.365.365 0 0 1-.185-.24 17.432 17.432 0 0 0-.889-2.431.354.354 0 0 1-.012-.28.293.293 0 0 1 .195-.185.38.38 0 0 1 .296.005.359.359 0 0 1 .219.196c.408.81.723 1.611.945 2.403Zm9.451-14.119c-.015-.132-.087-.191-.217-.175l-4.546.544c-.129.015-.186.089-.171.222l.58 5.065c.015.133.087.191.217.176l4.546-.545c.129-.015.186-.089.171-.222l-.58-5.065Zm1.927 4.783c.054.477-.067.908-.365 1.293a1.616 1.616 0 0 1-1.128.638l-1.282.153a.19.19 0 0 0-.129.076.17.17 0 0 0-.004.142c1 3.572 2.417 5.973 4.252 7.203a.79.79 0 0 1 .321.566.762.762 0 0 1-.101.495.9.9 0 0 1-.488.381l-.117.014a.745.745 0 0 1-.465-.106c-2.033-1.475-3.614-4.272-4.742-8.393-.028-.131-.107-.188-.237-.173l-1.418.17c-.129.015-.193.09-.191.224.374 3.835.097 6.808-.83 8.919a.556.556 0 0 1-.395.33.728.728 0 0 1-.538-.057.678.678 0 0 1-.34-.906c.279-.651.494-1.361.642-2.13.148-.77.228-1.565.239-2.385.009-.833-.009-1.57-.056-2.208-.036-.654-.1-1.391-.194-2.212l-.68-5.94c-.055-.476.061-.9.347-1.27a1.649 1.649 0 0 1 1.145-.66l4.313-.516c.466-.056.881.069 1.244.374.375.291.589.675.644 1.151l.553 4.827Zm-27.294-.498c-.015-.132-.087-.191-.217-.175l-2.525.302c-.13.015-.193.09-.191.224-.004.887-.073 1.653-.209 2.301a6.334 6.334 0 0 1-.731 1.879c-.339.591-.823 1.119-1.453 1.584-.629.464-1.42.895-2.373 1.291a.869.869 0 0 1-.609.012 1.224 1.224 0 0 1-.533-.359.524.524 0 0 1-.111-.45c.045-.18.143-.299.294-.357.856-.317 1.559-.663 2.107-1.038.546-.387.969-.82 1.269-1.299.298-.492.503-.994.615-1.504.124-.525.19-1.15.199-1.876a.138.138 0 0 0-.055-.134.182.182 0 0 0-.143-.044l-3.438.412c-.13.015-.187.089-.172.222l.203 1.768a.726.726 0 0 1-.155.542.717.717 0 0 1-.499.281.683.683 0 0 1-.53-.158.71.71 0 0 1-.273-.491l-.185-1.609c-.054-.477.062-.9.347-1.27a1.65 1.65 0 0 1 1.146-.66l5.634-.675c.129-.015.186-.089.171-.222l-.132-1.152a.747.747 0 0 1 .652-.843.706.706 0 0 1 .55.156c.172.127.27.296.294.508l.132 1.152c.015.133.088.191.217.176l5.789-.693c.467-.056.881.069 1.245.374.374.291.589.675.643 1.151l.13 1.133a.815.815 0 0 1-.15.581.714.714 0 0 1-.499.282.771.771 0 0 1-.569-.154.803.803 0 0 1-.278-.53l-.148-1.291c-.015-.133-.087-.191-.217-.176l-3.633.435c-.129.016-.186.09-.171.222l.439 3.834c.029.251.099.404.21.458.111.054.348.059.711.016l2.564-.307c.233-.028.388-.107.465-.237.09-.132.133-.392.128-.781a.43.43 0 0 1 .192-.385.449.449 0 0 1 .425-.071.903.903 0 0 1 .49.324.786.786 0 0 1 .2.54c-.017.659-.147 1.125-.392 1.396-.232.269-.639.439-1.222.508l-2.856.342c-.854.103-1.439.045-1.752-.173-.314-.217-.514-.703-.601-1.458l-.439-3.834Zm.735 12.779c.015.133.087.191.217.176l7.13-.854a.607.607 0 0 1 .491.163.656.656 0 0 1 .249.454.685.685 0 0 1-.138.519.637.637 0 0 1-.443.255l-16.047 1.921a.634.634 0 0 1-.489-.143.683.683 0 0 1-.251-.473.662.662 0 0 1 .14-.5.607.607 0 0 1 .441-.275l7.032-.842c.13-.015.187-.089.172-.222l-.421-3.674c-.015-.133-.087-.191-.217-.176l-4.973.596a.631.631 0 0 1-.489-.143.656.656 0 0 1-.249-.454.69.69 0 0 1 .137-.52.64.64 0 0 1 .444-.254l12.278-1.47a.63.63 0 0 1 .489.143.683.683 0 0 1 .251.473.663.663 0 0 1-.14.5.637.637 0 0 1-.443.255l-5.42.649c-.13.015-.187.089-.172.222l.421 3.674Zm-15.175-7.486c.13-.016.187-.09.172-.222l-.437-3.814c-.015-.133-.087-.191-.217-.175l-3.691.441c-.129.016-.187.09-.171.222l.436 3.814c.015.133.088.191.217.176l3.691-.442Zm-.673-5.538c.466-.056.881.069 1.244.375.375.291.59.674.644 1.151l.391 3.417c.055.477-.066.907-.364 1.292-.286.37-.662.583-1.128.638l-3.555.426a1.663 1.663 0 0 1-1.262-.353 1.733 1.733 0 0 1-.626-1.173l-.391-3.417c-.055-.476.061-.9.347-1.27a1.649 1.649 0 0 1 1.145-.66l3.555-.426Zm-7.927 3.003a.191.191 0 0 0-.075-.132c-.03-.037-.071-.052-.123-.046l-2.39.286c-.129.016-.199.091-.21.227-.063 1.283-.288 2.411-.676 3.383a6.462 6.462 0 0 1-1.781 2.509.784.784 0 0 1-.552.167.929.929 0 0 1-.502-.262.612.612 0 0 1-.179-.361.6.6 0 0 1 .193-.547 5.377 5.377 0 0 0 1.483-2.01c.318-.776.51-1.679.576-2.707a.14.14 0 0 0-.054-.134.131.131 0 0 0-.124-.046l-2.001.24a.671.671 0 0 1-.486-.123.656.656 0 0 1-.249-.454.663.663 0 0 1 .139-.5.637.637 0 0 1 .444-.254l2.176-.261c.129-.015.194-.083.193-.204-.017-.374-.036-.774-.059-1.201a.801.801 0 0 1 .174-.545.719.719 0 0 1 .5-.281.624.624 0 0 1 .51.16.65.65 0 0 1 .254.494c.027.466.039.861.037 1.183a.14.14 0 0 0 .055.135.184.184 0 0 0 .142.043l2.196-.263c.453-.054.855.072 1.205.379.321.284.506.631.553 1.042l.013.119c.06 1.443.071 2.509.032 3.198-.041.676-.151 1.146-.331 1.409-.238.337-.6.555-1.087.654a6.802 6.802 0 0 1-.812.137l-.466.056a.887.887 0 0 1-.55-.156 1.015 1.015 0 0 1-.35-.482.472.472 0 0 1 .013-.404.432.432 0 0 1 .346-.243c.43-.024.782-.053 1.054-.085.272-.033.458-.123.56-.269.224-.335.293-1.619.209-3.851Zm10.804 6.298a.664.664 0 0 1 .249.454.668.668 0 0 1-.14.5.633.633 0 0 1-.444.254l-5.828.698c-.039.005-.062.028-.071.069-.008.041.002.073.031.097.848.757 1.878 1.433 3.088 2.026a17.206 17.206 0 0 0 3.751 1.283.531.531 0 0 1 .408.475.56.56 0 0 1-.078.351 1.34 1.34 0 0 1-.498.463 1.296 1.296 0 0 1-.306.077 1.034 1.034 0 0 1-.337-.02 19.304 19.304 0 0 1-3.757-1.504 15.573 15.573 0 0 1-3.209-2.233c-.016-.025-.043-.029-.08-.011-.025.016-.036.038-.033.064l.519 4.529a.717.717 0 0 1-.172.565.686.686 0 0 1-.497.301.738.738 0 0 1-.571-.173.74.74 0 0 1-.275-.511l-.535-4.668c-.003-.027-.024-.044-.065-.053-.027-.01-.046-.001-.056.027-.705 1.064-1.586 2.089-2.641 3.075a18.385 18.385 0 0 1-3.28 2.487.85.85 0 0 1-.341.121.986.986 0 0 1-.276-.007 1.049 1.049 0 0 1-.587-.313.513.513 0 0 1-.175-.321.667.667 0 0 1 .001-.161.544.544 0 0 1 .287-.417 18.375 18.375 0 0 0 3.249-2.242c1.053-.891 1.914-1.806 2.581-2.745.023-.03.025-.064.008-.102-.018-.038-.046-.055-.085-.05l-5.925.709a.63.63 0 0 1-.489-.143.654.654 0 0 1-.249-.453.664.664 0 0 1 .14-.5.637.637 0 0 1 .443-.255l7.014-.839c.129-.016.186-.089.171-.222l-.114-.993a.747.747 0 0 1 .672-.846.707.707 0 0 1 .549.156c.172.127.27.297.295.508l.113.994c.016.132.088.191.217.175l6.839-.819a.634.634 0 0 1 .489.143Z"/>
    <path fill="#CCC" d="M60.357 329.59 48.445 227.885l50.852-5.956 11.912 101.705-50.852 5.956Zm206.961-186.705 63.671-2.981 2.98 63.671-63.671 2.98-2.98-63.67ZM140.471 332.027l74.563-8.732 5.658 48.309-74.563 8.733-5.658-48.31Zm328.103-280.39 52.805 80.173-42.759 28.162-52.805-80.173 42.759-28.162Z"/>
    <path fill="#D6BFA9" d="m604.679 113.92 28.162 42.759-42.759 28.162-28.162-42.759 42.759-28.162Z"/>
    <path fill="#CCC" d="m382.72 229.929 127.131-14.889 5.658 48.31-127.131 14.889-5.658-48.31Z"/>
    <path fill="#4B9B4B" d="M743.131 65.073c-16.971 3.068-21.355 14.445-25.627 23.953l3.483 1.374 1.947-4.228c.885.353 1.81.634 2.482.66 20.561.819 27.432-30.733 27.432-30.733-2.018 3.664-15.12 3.61-24.54 5.108-9.42 1.497-13.474 9.292-13.623 13.03-.149 3.738 2.992 7.14 2.992 7.14 6.763-17.048 25.454-16.304 25.454-16.304Z"/>
    <path fill="#78593A" d="M747.218 120.446c.2.125.325.337.375.636.024.374-.075.798-.3 1.272a5.083 5.083 0 0 1-.823 1.197c-.798.898-1.783 1.597-2.955 2.095-1.148.499-2.395.749-3.742.749h-.486c-1.297-.125-2.457-.512-3.479-1.16-.948-.649-1.759-1.521-2.432-2.619-.748-1.297-1.16-2.731-1.235-4.302a2.8 2.8 0 0 1-.149-1.123 9.743 9.743 0 0 1 .673-3.217l.038-.15.149-.299a9.756 9.756 0 0 1 1.833-2.619c.375-.399.824-.798 1.347-1.197.474-.349 1.085-.623 1.833-.823a6.82 6.82 0 0 1 2.619-.524l.3.038c.873.025 1.671.174 2.394.449.823.324 1.546.81 2.17 1.459.823.848 1.272 1.883 1.347 3.105.099 1.197-.287 2.332-1.16 3.404-.698.749-1.709 1.31-3.03 1.684-.948.249-2.033.374-3.255.374l-.599.037c-1.646 0-2.868-.149-3.666-.449.05.25.1.524.149.823.075.499.237 1.048.487 1.647.274.598.548 1.01.823 1.234.673.674 1.521 1.11 2.544 1.31.424.025.761.037 1.01.037.848 0 1.708-.137 2.581-.412.35-.124.736-.374 1.16-.748.449-.374.798-.748 1.048-1.122.548-.723 1.085-1.085 1.608-1.085.275 0 .549.1.823.299Zm-11.822-5.761a6.685 6.685 0 0 0-.262.898h.038c.224 0 .561.062 1.01.187a7.669 7.669 0 0 0 2.282.336h.299a19.803 19.803 0 0 0 2.544-.336c.699-.175 1.173-.337 1.422-.487.524-.249.836-.523.935-.823.075-.199.15-.436.225-.71.025-.3.012-.512-.038-.636-.174-.649-.661-1.135-1.459-1.46-.698-.299-1.371-.448-2.02-.448-.199 0-.399.024-.599.074-.074.025-.249.088-.523.187-.225.075-.362.113-.412.113a8.294 8.294 0 0 0-1.908 1.047l-.262.262a5.875 5.875 0 0 0-1.272 1.796Zm-1.635-14.366c.275.324.374.76.3 1.309-.075.649-.599.998-1.572 1.048-1.247.05-2.07.311-2.469.785-.15.175-.287.449-.411.823-.125.449-.2.911-.225 1.385-.05.449-.1 1.06-.15 1.833h.113c.124 0 .274.025.449.075.174.049.286.074.336.074.1 0 .262-.012.487-.037a5.28 5.28 0 0 1 .748-.075c.274 0 .549.038.823.112h.224c.125-.025.225-.037.3-.037h.149c.424.1.599.673.524 1.721-.05.798-.262 1.197-.636 1.197h-.075l-.112-.037a.86.86 0 0 0-.299-.075c-.05 0-.125.012-.225.037-.174.025-.311.05-.411.075-.1 0-.212-.012-.337-.037a1.15 1.15 0 0 0-.187-.038.415.415 0 0 0-.187.038h-.075c-.075 0-.187-.025-.337-.075h-.336c-.175.025-.3.037-.374.037-.125 0-.262-.025-.412-.075a.656.656 0 0 0-.15-.037l-.037 1.122c.025.375.05.636.075.786.025.249 0 .574-.075.973.05.524.062.96.037 1.309 0 .15-.024.462-.074.935-.075.599-.113.998-.113 1.198.025.349.038.848.038 1.496.05 1.821.025 3.305-.075 4.452-.025.175-.025.486 0 .935v1.085c-.05.374-.212.674-.486.898-.25.225-.586.337-1.01.337a.853.853 0 0 1-.262-.037c-.399-.025-.711-.188-.936-.487-.199-.274-.274-.611-.224-1.01.1-.599.125-1.272.075-2.02a20.892 20.892 0 0 1-.038-1.123c0-.174.013-.424.038-.748.05-.598.062-1.11.037-1.534-.025-.074-.012-.336.038-.785.024-.3.037-.474.037-.524v-.861c-.025-.424-.037-.76-.037-1.01 0-.224.037-.536.112-.935.05-.424.062-.736.037-.935a6.13 6.13 0 0 1-.075-.711l.113-2.806v-.037a3.261 3.261 0 0 0-.337-.038c-.15 0-.299.013-.449.038-.2.05-.349.074-.449.074-.2 0-.436-.037-.711-.112h-.224a1.593 1.593 0 0 1-.262.038l-.187-.038c-.399-.075-.574-.648-.524-1.721.05-.673.299-1.01.748-1.01h.823c.2-.025.349-.037.449-.037h1.123v-.674c.025-.324.112-.997.261-2.02l.075-.299c.15-1.098.424-1.946.823-2.544.599-.973 1.572-1.559 2.918-1.759 1.023-.224 1.759-.336 2.208-.336.449.025.798.174 1.047.449Zm-10.514 23.045c.574.699.736 1.322.486 1.871-.149.374-.473.561-.972.561-.2 0-.399-.037-.599-.112-.349-.075-.711-.287-1.085-.636-.349-.349-.598-.711-.748-1.085-.175-.449-.312-1.023-.412-1.721a.46.46 0 0 0-.074.112l-.038.038c-.399.623-.86 1.197-1.384 1.721-.748.723-1.534 1.284-2.357 1.683-.449.225-.973.362-1.571.412h-.412c-.449 0-.873-.05-1.272-.15-1.521-.424-2.718-1.347-3.591-2.768-.649-1.098-.961-2.482-.936-4.153v-.299c0-.499.013-.861.038-1.085.174-1.123.461-2.158.86-3.106l.15-.374c.424-.923.973-1.808 1.646-2.656.299-.424.711-.873 1.235-1.347a4.879 4.879 0 0 1 1.87-1.01 5.511 5.511 0 0 1 2.357-.524c.275 0 .536.025.786.075.698.05 1.496.324 2.394.823a6.168 6.168 0 0 1 1.908 1.946c.399.698.699 1.521.898 2.469.1.549.175 1.172.225 1.87.024.549 0 1.509-.075 2.881-.025.798-.05 1.347-.075 1.646 0 .424.062.998.187 1.721.075.449.187.773.337.973l.224.224Zm-3.666-7.894c.05-.224.1-.411.149-.561 0-.05-.025-.187-.074-.411-.05-.225-.088-.399-.113-.524-.224-.798-.573-1.372-1.047-1.721a3.84 3.84 0 0 0-2.694-.636c-.025.025-.137.087-.337.187l-.299.112a4.986 4.986 0 0 0-1.683 1.123l-.225.224a8.883 8.883 0 0 0-1.347 2.095c-.099.25-.212.636-.336 1.16-.05.274-.125.599-.225.973-.075.299-.125.511-.149.636-.075.873-.075 1.559 0 2.057.049.549.187 1.035.411 1.459.225.499.511.898.861 1.198.448.374.885.561 1.309.561.599-.025 1.172-.237 1.721-.636 1.022-.748 2.02-2.07 2.993-3.966.374-.748.736-1.858 1.085-3.33Zm-12.528 3.929c.35.274.399.773.15 1.496a9.233 9.233 0 0 1-.412.861 9.247 9.247 0 0 1-.673.748c-1.871 2.045-4.215 3.18-7.033 3.404h-.636c-.499 0-.961-.012-1.385-.037l-1.496-.262-.112-.037c-1.148-.374-2.17-.823-3.068-1.347-1.447-.998-2.507-2.12-3.18-3.367a3.568 3.568 0 0 1-.673-.936 13.408 13.408 0 0 1-.262-.785c-.225-.649-.362-1.098-.412-1.347l-.187-1.272c-.05-.299-.05-.761 0-1.384v-.524c.025-.624.075-1.135.15-1.534.075-.648.149-1.197.224-1.646.075-.499.262-1.097.561-1.796.275-.948.636-1.796 1.085-2.544.25-.524.674-1.135 1.272-1.833.599-.723 1.135-1.284 1.609-1.683 1.521-1.447 3.155-2.47 4.901-3.068a11.09 11.09 0 0 1 3.18-.561c1.571 0 2.843.374 3.816 1.122.823.599 1.372 1.359 1.646 2.282.274.848.287 1.733.037 2.656-.174.524-.411.948-.71 1.272-.3.3-.624.449-.973.449-.324 0-.611-.137-.861-.411-.424-.424-.498-1.197-.224-2.32.15-.673.012-1.185-.412-1.534-.349-.324-.96-.511-1.833-.561h-.336a7.565 7.565 0 0 0-3.218.711c-.174.05-.511.199-1.01.449-.474.249-.773.424-.898.524-.698.498-1.459 1.234-2.282 2.207-.898 1.097-1.459 1.983-1.683 2.656-.025.05-.075.187-.15.412-.1.274-.175.499-.225.673a13.902 13.902 0 0 0-.486 1.646 11.8 11.8 0 0 0-.224 1.048c-.125.598-.187 1.521-.187 2.768l.261 1.31c.225.523.375.997.449 1.421l.225.337c.399.624.711 1.06.935 1.309.25.375.661.786 1.235 1.235.573.424 1.072.723 1.496.898l1.01.337c.1.025.275.049.524.074.15.025.249.05.299.075.275.05.599.075.973.075h.486a10.563 10.563 0 0 0 3.779-.823c.249-.1.624-.349 1.122-.748l.225-.187c.149-.125.361-.349.636-.674.224-.249.386-.424.486-.523.449-.674.985-1.011 1.609-1.011.299 0 .586.1.86.3Z"/>
    <path fill="#4B9B4B" d="M687.545 100.319c.274.324.374.76.299 1.309-.075.649-.599.998-1.571 1.048-1.247.049-2.071.311-2.47.785-.149.175-.286.449-.411.823-.125.449-.2.911-.225 1.385-.049.448-.099 1.06-.149 1.833h.112c.125 0 .274.025.449.075.175.049.287.074.337.074.099 0 .262-.012.486-.037.324-.05.574-.075.748-.075.275 0 .549.038.823.112h.225c.124-.025.224-.037.299-.037h.15c.424.1.598.673.523 1.721-.049.798-.261 1.197-.636 1.197h-.074l-.113-.037a.855.855 0 0 0-.299-.075c-.05 0-.125.012-.224.037-.175.025-.312.05-.412.075-.1 0-.212-.012-.337-.037a1.13 1.13 0 0 0-.187-.038.418.418 0 0 0-.187.038h-.075c-.074 0-.187-.025-.336-.075h-.337a3.005 3.005 0 0 1-.374.037c-.125 0-.262-.025-.412-.075a.59.59 0 0 0-.149-.037l-.038 1.122c.025.374.05.636.075.786.025.249 0 .574-.075.973.05.523.063.96.038 1.309 0 .15-.025.462-.075.935-.075.599-.112.998-.112 1.198.025.349.037.848.037 1.496.05 1.821.025 3.305-.075 4.452-.025.175-.025.486 0 .935v1.085c-.05.374-.212.674-.486.898-.249.225-.586.337-1.01.337a.827.827 0 0 1-.262-.038c-.399-.024-.711-.187-.935-.486-.2-.274-.275-.611-.225-1.01.1-.599.125-1.272.075-2.02a20.752 20.752 0 0 1-.037-1.123c0-.174.012-.424.037-.748.05-.598.062-1.11.037-1.534-.025-.075-.012-.336.038-.785.025-.3.037-.474.037-.524v-.861c-.025-.424-.037-.76-.037-1.01 0-.224.037-.536.112-.935.05-.424.062-.736.037-.935a6.291 6.291 0 0 1-.074-.711l.112-2.806v-.037a3.261 3.261 0 0 0-.337-.038 2.73 2.73 0 0 0-.449.038 2.082 2.082 0 0 1-.449.074c-.199 0-.436-.037-.711-.112h-.224a1.593 1.593 0 0 1-.262.038l-.187-.038c-.399-.075-.574-.648-.524-1.721.05-.673.3-1.01.749-1.01h.823a3.92 3.92 0 0 1 .449-.037h1.122v-.674c.025-.324.112-.997.262-2.02l.075-.299c.149-1.098.424-1.946.823-2.544.598-.973 1.571-1.559 2.918-1.759 1.022-.224 1.758-.336 2.207-.336.449.025.798.174 1.048.449Zm-10.515 23.045c.574.699.736 1.322.487 1.871-.15.374-.474.561-.973.561-.199 0-.399-.037-.599-.112-.349-.075-.71-.287-1.084-.636-.35-.349-.599-.711-.749-1.085-.174-.449-.311-1.023-.411-1.721a.432.432 0 0 0-.075.112l-.037.038c-.4.623-.861 1.197-1.385 1.721-.748.723-1.534 1.284-2.357 1.683-.449.225-.972.362-1.571.412h-.411c-.449 0-.873-.05-1.272-.15-1.522-.424-2.719-1.347-3.592-2.769-.648-1.097-.96-2.481-.935-4.152v-.3c0-.498.012-.86.037-1.084.175-1.123.462-2.158.861-3.106l.149-.374c.424-.923.973-1.808 1.646-2.656.3-.424.711-.873 1.235-1.347a4.883 4.883 0 0 1 1.871-1.01 5.507 5.507 0 0 1 2.356-.524c.275 0 .537.025.786.075.698.05 1.497.324 2.394.823a6.146 6.146 0 0 1 1.908 1.946c.4.698.699 1.521.898 2.469.1.548.175 1.172.225 1.87.025.549 0 1.509-.075 2.881-.025.798-.05 1.347-.075 1.646 0 .424.063.998.187 1.721.075.449.187.773.337.973l.224.224Zm-3.666-7.894c.05-.224.1-.411.15-.561 0-.05-.025-.187-.075-.411a26.43 26.43 0 0 1-.112-.524c-.225-.798-.574-1.372-1.048-1.721a3.838 3.838 0 0 0-2.694-.636c-.024.025-.137.087-.336.187l-.3.112a4.996 4.996 0 0 0-1.683 1.123l-.225.224a8.911 8.911 0 0 0-1.346 2.095c-.1.25-.212.636-.337 1.16-.05.274-.125.599-.225.973-.074.299-.124.511-.149.636-.075.873-.075 1.558 0 2.057.05.549.187 1.035.411 1.459.225.499.512.898.861 1.198.449.374.885.561 1.309.561.599-.025 1.172-.237 1.721-.636 1.023-.749 2.02-2.07 2.993-3.966.374-.748.736-1.858 1.085-3.33Zm-12.806 4.976c.199.125.324.337.374.636.025.374-.075.798-.3 1.272a5.054 5.054 0 0 1-.823 1.197c-.798.898-1.783 1.597-2.955 2.095-1.148.499-2.395.749-3.741.749h-.487c-1.297-.125-2.456-.512-3.479-1.16-.948-.649-1.758-1.522-2.432-2.619-.748-1.297-1.16-2.731-1.234-4.302a2.783 2.783 0 0 1-.15-1.123 9.743 9.743 0 0 1 .673-3.217l.038-.15.149-.299a9.737 9.737 0 0 1 1.834-2.619c.374-.399.823-.798 1.346-1.197.474-.349 1.085-.624 1.834-.823a6.82 6.82 0 0 1 2.618-.524l.3.038c.873.025 1.671.174 2.394.449.823.324 1.546.81 2.17 1.459.823.848 1.272 1.883 1.347 3.105.1 1.197-.287 2.332-1.16 3.404-.698.748-1.708 1.31-3.03 1.684-.948.249-2.033.374-3.255.374l-.599.037c-1.646 0-2.868-.149-3.666-.449.05.25.1.524.15.823.074.499.236 1.048.486 1.647.274.598.549 1.01.823 1.234.673.674 1.521 1.11 2.544 1.31.424.024.761.037 1.01.037a8.55 8.55 0 0 0 2.581-.412c.35-.124.736-.374 1.16-.748.449-.374.798-.748 1.048-1.122.548-.723 1.085-1.085 1.608-1.085.275 0 .549.1.824.299Zm-11.823-5.761a6.519 6.519 0 0 0-.261.898h.037c.224 0 .561.062 1.01.187a7.669 7.669 0 0 0 2.282.336h.299a19.757 19.757 0 0 0 2.544-.336c.699-.175 1.173-.337 1.422-.487.524-.249.836-.523.935-.823.075-.199.15-.436.225-.711.025-.299.012-.511-.038-.636-.174-.648-.66-1.134-1.459-1.459-.698-.299-1.371-.449-2.02-.449a2.45 2.45 0 0 0-.598.075c-.075.025-.25.088-.524.187-.225.075-.362.113-.412.113a8.294 8.294 0 0 0-1.908 1.047l-.262.262a5.875 5.875 0 0 0-1.272 1.796Zm-3.723 8.53c.15.324.138.661-.037 1.01-.274.548-.773.873-1.497.972-.573.075-1.209.163-1.908.262a27.297 27.297 0 0 1-2.581.337c-.349.025-.835.037-1.459.037-.748 0-1.334.013-1.758.038h-.075c-.15 0-.549-.025-1.197-.075-.3-.025-.474-.05-.524-.075h-.636c-.898-.025-1.584-.075-2.058-.149a7.721 7.721 0 0 1-.748-.113l-.374-.112c-.1-.025-.25-.075-.449-.15-.524-.174-.898-.411-1.122-.71a.59.59 0 0 1-.113-.15h-.037l-.225-.86v-.15c0-.225-.012-.474-.037-.748a4.953 4.953 0 0 1-.037-.487l.149-4.377c-.025-.524-.05-.885-.075-1.085-.024-.324 0-.748.075-1.272a15.396 15.396 0 0 1-.037-1.796c0-.224.025-.636.075-1.234.05-.823.075-1.384.075-1.684 0-.548-.013-1.197-.038-1.945a33.491 33.491 0 0 1 .112-4.153c0-.249-.012-.686-.037-1.309 0-.699.012-1.185.037-1.459.025-.474.162-.848.412-1.123.274-.274.623-.411 1.047-.411h.3c.698.125 1.022.848.972 2.17-.025.698-.025 1.758 0 3.18v1.833l-.037 4.414-.112 2.657v.224c.075.15.112.387.112.711l-.15 4.415c.025.498.038.86.038 1.085.05.324.037.748-.038 1.272v.299h.412l-.112.149c.025 0 .05.013.074.038h.113a9.28 9.28 0 0 0 1.347.224c.673.025 1.371.038 2.095.038.922 0 2.369-.038 4.339-.112l1.31-.038c.524-.05 1.334-.224 2.432-.524.174-.025.336-.037.486-.037.598 0 1.097.324 1.496.973Zm64.787-39.545c.05 1.447.05 2.445 0 2.993-.025.4-.1.761-.225 1.085a1.7 1.7 0 0 1-.524.711c-.199.15-.436.225-.71.225-.125 0-.262-.025-.412-.075a1.144 1.144 0 0 1-.561-.412 2.436 2.436 0 0 1-.262-.71c-.025-.275-.05-.562-.075-.861 0-.324.013-.611.038-.86.074-2.145-.038-4.403-.337-6.772a31.203 31.203 0 0 0-.524-2.843l-.112-.412c-.225-.823-.486-1.496-.786-2.02-.324-.474-.561-.723-.711-.748a3.228 3.228 0 0 0-1.01-.187.835.835 0 0 0-.262.037l-.149.075c-.175.124-.324.2-.449.224-.05.025-.137.088-.262.187a1.88 1.88 0 0 1-.262.187c-.025.025-.087.1-.187.225l-.187.187c-.1.1-.212.262-.337.486a2.16 2.16 0 0 1-.224.3c-.374.648-.736 1.471-1.085 2.469l-.075.3c-.1.473-.175.835-.224 1.084-.025.3-.113.736-.262 1.31l-.075.336c-.05.275-.112.748-.187 1.422a83.35 83.35 0 0 0-.15.972c-.274 1.846-.424 3.168-.449 3.966l-.037.636c.05.15 0 .374-.15.674a1.454 1.454 0 0 1-.561.598c-.249.15-.524.225-.823.225-.125 0-.274-.025-.449-.075-.474-.125-.811-.437-1.01-.935a.917.917 0 0 1-.075-.337l-.037-.187-.038-1.385-.075-2.656c-.025-2.12.038-4.103.187-5.948 0-.325.013-.848.038-1.572.025-1.122.05-1.895.075-2.319.05-.4.137-.748.262-1.048.124-.299.286-.523.486-.673a1.189 1.189 0 0 1 1.16-.187c.723.224 1.06.923 1.01 2.095.05-.075.137-.224.262-.449.274-.474.511-.835.711-1.085.374-.524.96-.985 1.758-1.384l.187-.075c.648-.3 1.16-.449 1.534-.449l.224-.037c.225-.025.374-.038.449-.038h.187l.973.187c.175.025.312.05.412.075l.748.374c.149.075.312.2.486.374l.15.15c.249.225.436.449.561.674l.374.56.262.6c.1.199.212.46.337.785l.074.224c.424 1.173.761 2.47 1.011 3.891a27.97 27.97 0 0 1 .336 4.864l.038.972Zm-16.324-.636c.2.125.325.337.375.636.025.374-.075.799-.3 1.272a5.059 5.059 0 0 1-.823 1.198c-.798.897-1.783 1.596-2.955 2.095-1.148.499-2.395.748-3.741.748h-.487c-1.297-.125-2.457-.511-3.479-1.16-.948-.648-1.758-1.521-2.432-2.619-.748-1.297-1.16-2.73-1.234-4.302a2.78 2.78 0 0 1-.15-1.122c.05-1.148.274-2.22.673-3.218l.038-.15.149-.299a9.743 9.743 0 0 1 1.834-2.619c.374-.399.823-.798 1.346-1.197.474-.349 1.085-.623 1.834-.823a6.812 6.812 0 0 1 2.618-.524l.3.038c.873.025 1.671.174 2.394.449.823.324 1.546.81 2.17 1.459.823.848 1.272 1.883 1.347 3.105.099 1.197-.287 2.332-1.16 3.404-.698.749-1.709 1.31-3.03 1.684-.948.25-2.033.374-3.255.374l-.599.038c-1.646 0-2.868-.15-3.666-.45.05.25.1.524.149.824.075.499.237 1.047.487 1.646.274.598.549 1.01.823 1.234.673.674 1.521 1.11 2.544 1.31.424.025.761.037 1.01.037.848 0 1.708-.137 2.581-.411.35-.125.736-.374 1.16-.749.449-.374.798-.748 1.048-1.122.548-.723 1.085-1.085 1.608-1.085.275 0 .549.1.823.3Zm-11.822-5.761c-.124.35-.212.648-.262.898h.038c.224 0 .561.062 1.01.187a7.656 7.656 0 0 0 2.282.337h.299c.799-.05 1.647-.162 2.544-.337.699-.175 1.173-.337 1.422-.486.524-.25.836-.524.935-.823.075-.2.15-.437.225-.711.025-.3.012-.512-.038-.636-.174-.649-.661-1.135-1.459-1.46-.698-.299-1.371-.448-2.02-.448a2.46 2.46 0 0 0-.598.075c-.075.025-.25.087-.524.187-.225.074-.362.112-.412.112a8.311 8.311 0 0 0-1.908 1.047l-.262.262a5.882 5.882 0 0 0-1.272 1.796Zm-4.837 5.761c.199.125.324.337.374.636.025.374-.075.799-.3 1.272a5.059 5.059 0 0 1-.823 1.198c-.798.897-1.783 1.596-2.955 2.095-1.147.499-2.395.748-3.741.748h-.487c-1.297-.125-2.456-.511-3.479-1.16-.948-.648-1.758-1.521-2.432-2.619-.748-1.297-1.16-2.73-1.234-4.302a2.78 2.78 0 0 1-.15-1.122c.05-1.148.274-2.22.673-3.218l.038-.15.149-.299a9.743 9.743 0 0 1 1.834-2.619c.374-.399.823-.798 1.346-1.197.474-.349 1.085-.623 1.834-.823a6.816 6.816 0 0 1 2.618-.524l.3.038c.873.025 1.671.174 2.394.449.823.324 1.546.81 2.17 1.459.823.848 1.272 1.883 1.347 3.105.1 1.197-.287 2.332-1.16 3.404-.698.749-1.708 1.31-3.03 1.684-.948.25-2.033.374-3.255.374l-.599.038c-1.646 0-2.868-.15-3.666-.45.05.25.1.524.15.824.074.499.237 1.047.486 1.646.274.598.549 1.01.823 1.234.673.674 1.521 1.11 2.544 1.31.424.025.761.037 1.01.037.848 0 1.709-.137 2.582-.411.349-.125.735-.374 1.159-.749.449-.374.798-.748 1.048-1.122.549-.723 1.085-1.085 1.609-1.085.274 0 .548.1.823.3Zm-11.823-5.761a6.55 6.55 0 0 0-.261.898h.037c.224 0 .561.062 1.01.187a7.656 7.656 0 0 0 2.282.337h.3a19.88 19.88 0 0 0 2.544-.337c.698-.175 1.172-.337 1.421-.486.524-.25.836-.524.935-.823.075-.2.15-.437.225-.711.025-.3.012-.512-.037-.636-.175-.649-.661-1.135-1.46-1.46-.698-.299-1.371-.448-2.02-.448a2.46 2.46 0 0 0-.598.075c-.075.025-.25.087-.524.187-.225.074-.362.112-.412.112a8.311 8.311 0 0 0-1.908 1.047l-.262.262a5.882 5.882 0 0 0-1.272 1.796Zm-2.551-5.088c.2.374.2.786 0 1.235-.249.598-.723.897-1.421.897h-.412a2.868 2.868 0 0 0-.748-.112c-.275 0-.599.05-.973.15-.424.125-.923.337-1.496.636-.873.449-1.534.948-1.983 1.496l-.262.262c-.424.474-.661.749-.711.823-.324.524-.611 1.16-.86 1.908-.275.973-.399 1.659-.375 2.058l.038.224c.025.3.037.512.037.636a328.45 328.45 0 0 1-.075 2.731v2.17l-.037.262-.037.225a5.82 5.82 0 0 1-.113.299l-.112.15c-.05.075-.112.15-.187.224-.249.275-.586.412-1.01.412h-.15a1.458 1.458 0 0 1-.785-.337 1.03 1.03 0 0 1-.262-.3l-.15-.224a1.148 1.148 0 0 1-.149-.374 4.137 4.137 0 0 1-.15-1.384v-.15a26.08 26.08 0 0 1-.075-1.833c0-.225.025-.686.075-1.384.05-.724.075-1.21.075-1.46 0-.523-.013-1.134-.038-1.832a38.661 38.661 0 0 1 .15-4.116v-2.693c.05-.45.199-.811.449-1.085.249-.275.586-.412 1.01-.412.1 0 .212.013.337.037.698.125 1.022.824.972 2.096-.025.424-.037.897-.037 1.421a7.02 7.02 0 0 1 .823-.898 8.482 8.482 0 0 1 4.228-2.282c.922-.2 1.733-.299 2.431-.299.275 0 .524.025.749.075.598.1 1.01.349 1.234.748Zm-14.736 4.565c.848 1.496.935 3.304.262 5.424-.599 1.671-1.409 2.93-2.432 3.778l-.299.262c-.474.4-.886.686-1.235.86l-.262.15c-.299.175-.536.3-.71.375l-1.235.523a11.442 11.442 0 0 1-3.33.487 11.58 11.58 0 0 1-2.282-.225h-.149c-.524-.025-.961-.1-1.31-.224a11.508 11.508 0 0 1-3.404-1.833l-.337-.3a8.912 8.912 0 0 1-.786-.823l-.374-.411c-.1-.1-.249-.3-.449-.599l-.598-.935-.374-.786-.15-.299a4.34 4.34 0 0 1-.299-.71l-.262-.899c-.175-.474-.275-1.11-.3-1.908 0-.274-.012-.474-.037-.598-.025-1.522.062-2.681.262-3.48.05-.399.15-.81.299-1.234.175-.624.349-1.11.524-1.46.199-.523.411-.985.636-1.384.199-.399.399-.76.599-1.085a14.004 14.004 0 0 1 5.05-5.05 13.166 13.166 0 0 1 3.592-1.422 15.693 15.693 0 0 1 2.057-.374h.599c.673 0 1.297.075 1.87.225 1.223.324 2.145.972 2.769 1.945.648.948.873 2.033.673 3.255-.149.948-.511 1.621-1.085 2.02-.249.175-.498.262-.748.262-.274 0-.536-.125-.785-.374-.325-.35-.424-1.023-.3-2.02.025-.3.05-.512.075-.636.05-.823-.299-1.372-1.047-1.647-.325-.1-.686-.15-1.085-.15-.474 0-1.035.076-1.684.225-1.721.374-3.18.986-4.377 1.834-.25.174-.636.473-1.16.897-.499.4-.786.661-.86.786-.774.923-1.447 2.07-2.021 3.442-.648 1.621-.972 2.893-.972 3.816v1.422l.037.56c.075.724.15 1.198.225 1.422l.074.337c.1.424.187.711.262.86.05.1.113.237.187.412.125.3.237.524.337.674l.524.748c.05.1.187.25.411.449.125.15.237.287.337.411.424.35.861.636 1.309.86.25.125.524.275.824.45.099.05.249.112.448.187.175.05.312.1.412.15.648.224 1.521.349 2.619.374h.149c.873 0 1.547-.063 2.021-.188.224-.025.523-.112.898-.261l.261-.075c.25-.075.524-.212.824-.412l.598-.374.561-.486c.3-.25.487-.437.561-.561a7.97 7.97 0 0 0 .898-1.534c.25-.624.424-1.235.524-1.834.125-.922.013-1.633-.337-2.132a1.04 1.04 0 0 0-.112-.15 1.847 1.847 0 0 0-.187-.112c-.249-.1-.536-.15-.86-.15a2.964 2.964 0 0 0-.487-.037c-.349 0-.86.038-1.534.112-.324.025-.586.038-.785.038-.773 0-1.322-.162-1.646-.487-.225-.224-.325-.51-.3-.86 0-.474.362-.836 1.085-1.085a7.202 7.202 0 0 1 2.357-.449h.599c.673 0 1.297.062 1.87.187.599.15 1.073.35 1.422.599.424.299.786.71 1.085 1.234Z"/>
    <path fill="#4B9B4B" fill-rule="evenodd" d="M590.49 129.445a2.98 2.98 0 0 1 2.868-1.799 2.985 2.985 0 0 1 1.669.597l.004.003 1.476 1.117c1.6-3.876 3.976-7.54 7.494-9.591 4.472-2.608 10.169-2.287 17.082 2.024l.007.004c1.382.869 1.201 2.404.948 3.074-.26.688-1.059 1.807-2.512 1.759h-.002c-1.815-.063-4.196.219-6.374 1.607-1.863 1.187-3.756 3.296-4.985 7.12l2.257.671c.58.173 1.096.519 1.476.991a2.985 2.985 0 0 1-1.065 4.578l-13.43 6.267a2.998 2.998 0 0 1-2.611-.041 2.99 2.99 0 0 1-1.58-2.077l-2.902-14.499-.009-.042a2.986 2.986 0 0 1 .189-1.763Zm4.02 3.222 1.742 1.318a1.921 1.921 0 0 0 2.982-.93c1.471-4.462 3.67-8.198 6.702-9.966 2.245-1.309 5.304-1.728 9.563.086a13.91 13.91 0 0 0-4.412 1.826c-3.103 1.977-5.779 5.462-7.144 11.221a1.92 1.92 0 0 0 1.322 2.283l1.906.566-10.407 4.857-2.254-11.261Z" clip-rule="evenodd"/>
  </g>
  <defs>
    <clipPath id="a">
      <path fill="#fff" d="M0 0h768v474.88H0z"/>
    </clipPath>
  </defs>
</svg>
